M48
; DRILL file {KiCad (5.1.4)-1} date 28/02/2020 2:40:12 AM
; FORMAT={-:-/ absolute / inch / decimal}
; #@! TF.CreationDate,2020-02-28T02:40:12+11:00
; #@! TF.GenerationSoftware,Kicad,Pcbnew,(5.1.4)-1
; #@! TF.FileFunction,Plated,1,2,PTH
FMAT,2
INCH
T1C0.0315
T2C0.0394
T3C0.0400
T4C0.0630
%
G90
G05
T1
X6.05Y-3.75
X6.05Y-4.15
X5.1Y-3.97
X5.5Y-3.97
X4.2Y-3.1
X4.2Y-3.2
X4.2Y-3.3
X4.2Y-3.4
X4.2Y-3.5
X4.2Y-3.6
X4.2Y-3.7
X4.2Y-3.8
X4.2Y-3.9
X4.2Y-4.0
X4.2Y-4.1
X4.2Y-4.2
X4.2Y-4.3
X4.2Y-4.4
X4.2Y-4.5
X4.8Y-3.1
X4.8Y-3.2
X4.8Y-3.3
X4.8Y-3.4
X4.8Y-3.5
X4.8Y-3.6
X4.8Y-3.7
X4.8Y-3.8
X4.8Y-3.9
X4.8Y-4.0
X4.8Y-4.1
X4.8Y-4.2
X4.8Y-4.3
X4.8Y-4.4
X4.8Y-4.5
X5.1Y-4.11
X5.5Y-4.11
X6.05Y-3.15
X6.05Y-3.55
X5.1Y-4.25
X5.5Y-4.25
X6.05Y-4.35
X6.05Y-4.75
T2
X4.0Y-4.0
X4.0Y-4.1
X5.025Y-3.5
X5.025Y-3.6
X5.025Y-3.7
X5.025Y-3.8
X2.705Y-4.275
X2.705Y-4.375
X2.705Y-4.475
X2.705Y-4.575
X5.7Y-3.15
X5.8Y-3.15
X5.9Y-3.15
X4.1Y-4.75
X4.1Y-4.85
X2.704Y-3.148
X2.704Y-3.248
X2.704Y-3.348
X2.704Y-3.448
X2.705Y-3.745
X2.705Y-3.845
X2.705Y-3.945
X2.705Y-4.045
X4.3Y-4.75
X4.3Y-4.85
X3.97Y-3.4
X3.97Y-3.5
X3.97Y-3.6
X3.97Y-3.7
X5.7Y-4.35
X5.8Y-4.35
X5.9Y-4.35
X5.7Y-4.05
X5.8Y-4.05
X2.695Y-4.77
X2.695Y-4.87
X2.695Y-4.97
X2.695Y-5.07
X5.71Y-4.6
X5.81Y-4.6
X2.72Y-2.58
X2.72Y-2.68
X2.72Y-2.78
X2.72Y-2.88
X5.7Y-3.75
X5.8Y-3.75
X5.9Y-3.75
X5.68Y-3.46
X5.78Y-3.46
T3
X3.12Y-2.952
X3.12Y-3.052
X3.12Y-3.152
X3.12Y-3.252
X3.12Y-3.352
X3.12Y-3.452
X3.12Y-3.552
X3.12Y-3.652
X3.12Y-3.752
X3.12Y-3.852
X3.12Y-3.952
X3.12Y-4.052
X3.72Y-2.952
X3.72Y-3.052
X3.72Y-3.152
X3.72Y-3.252
X3.72Y-3.352
X3.72Y-3.452
X3.72Y-3.552
X3.72Y-3.652
X3.72Y-3.752
X3.72Y-3.852
X3.72Y-3.952
X3.72Y-4.052
T4
X4.7Y-4.75
X4.7Y-4.9862
X4.885Y-4.8681
T0
M30
