G04 #@! TF.GenerationSoftware,KiCad,Pcbnew,(5.1.4)-1*
G04 #@! TF.CreationDate,2020-02-28T02:40:08+11:00*
G04 #@! TF.ProjectId,glove_pcb,676c6f76-655f-4706-9362-2e6b69636164,rev?*
G04 #@! TF.SameCoordinates,Original*
G04 #@! TF.FileFunction,Soldermask,Top*
G04 #@! TF.FilePolarity,Negative*
%FSLAX46Y46*%
G04 Gerber Fmt 4.6, Leading zero omitted, Abs format (unit mm)*
G04 Created by KiCad (PCBNEW (5.1.4)-1) date 2020-02-28 02:40:08*
%MOMM*%
%LPD*%
G04 APERTURE LIST*
%ADD10C,0.100000*%
G04 APERTURE END LIST*
D10*
G36*
X68563442Y-127883518D02*
G01*
X68629627Y-127890037D01*
X68799466Y-127941557D01*
X68955991Y-128025222D01*
X68991729Y-128054552D01*
X69093186Y-128137814D01*
X69176448Y-128239271D01*
X69205778Y-128275009D01*
X69289443Y-128431534D01*
X69340963Y-128601373D01*
X69358359Y-128778000D01*
X69340963Y-128954627D01*
X69289443Y-129124466D01*
X69205778Y-129280991D01*
X69176448Y-129316729D01*
X69093186Y-129418186D01*
X68991729Y-129501448D01*
X68955991Y-129530778D01*
X68799466Y-129614443D01*
X68629627Y-129665963D01*
X68563443Y-129672481D01*
X68497260Y-129679000D01*
X68408740Y-129679000D01*
X68342557Y-129672481D01*
X68276373Y-129665963D01*
X68106534Y-129614443D01*
X67950009Y-129530778D01*
X67914271Y-129501448D01*
X67812814Y-129418186D01*
X67729552Y-129316729D01*
X67700222Y-129280991D01*
X67616557Y-129124466D01*
X67565037Y-128954627D01*
X67547641Y-128778000D01*
X67565037Y-128601373D01*
X67616557Y-128431534D01*
X67700222Y-128275009D01*
X67729552Y-128239271D01*
X67812814Y-128137814D01*
X67914271Y-128054552D01*
X67950009Y-128025222D01*
X68106534Y-127941557D01*
X68276373Y-127890037D01*
X68342558Y-127883518D01*
X68408740Y-127877000D01*
X68497260Y-127877000D01*
X68563442Y-127883518D01*
X68563442Y-127883518D01*
G37*
G36*
X119774072Y-125350918D02*
G01*
X119896329Y-125401558D01*
X120019939Y-125452759D01*
X120241212Y-125600610D01*
X120429390Y-125788788D01*
X120577241Y-126010061D01*
X120679082Y-126255928D01*
X120731000Y-126516938D01*
X120731000Y-126783062D01*
X120679082Y-127044072D01*
X120577241Y-127289939D01*
X120429390Y-127511212D01*
X120241212Y-127699390D01*
X120019939Y-127847241D01*
X120019938Y-127847242D01*
X120019937Y-127847242D01*
X119774072Y-127949082D01*
X119513063Y-128001000D01*
X119246937Y-128001000D01*
X118985928Y-127949082D01*
X118740063Y-127847242D01*
X118740062Y-127847242D01*
X118740061Y-127847241D01*
X118518788Y-127699390D01*
X118330610Y-127511212D01*
X118182759Y-127289939D01*
X118080918Y-127044072D01*
X118029000Y-126783062D01*
X118029000Y-126516938D01*
X118080918Y-126255928D01*
X118182759Y-126010061D01*
X118330610Y-125788788D01*
X118518788Y-125600610D01*
X118740061Y-125452759D01*
X118863672Y-125401558D01*
X118985928Y-125350918D01*
X119246937Y-125299000D01*
X119513063Y-125299000D01*
X119774072Y-125350918D01*
X119774072Y-125350918D01*
G37*
G36*
X68563442Y-125343518D02*
G01*
X68629627Y-125350037D01*
X68799466Y-125401557D01*
X68955991Y-125485222D01*
X68991729Y-125514552D01*
X69093186Y-125597814D01*
X69176448Y-125699271D01*
X69205778Y-125735009D01*
X69289443Y-125891534D01*
X69340963Y-126061373D01*
X69358359Y-126238000D01*
X69340963Y-126414627D01*
X69289443Y-126584466D01*
X69205778Y-126740991D01*
X69176448Y-126776729D01*
X69093186Y-126878186D01*
X68991729Y-126961448D01*
X68955991Y-126990778D01*
X68799466Y-127074443D01*
X68629627Y-127125963D01*
X68563442Y-127132482D01*
X68497260Y-127139000D01*
X68408740Y-127139000D01*
X68342558Y-127132482D01*
X68276373Y-127125963D01*
X68106534Y-127074443D01*
X67950009Y-126990778D01*
X67914271Y-126961448D01*
X67812814Y-126878186D01*
X67729552Y-126776729D01*
X67700222Y-126740991D01*
X67616557Y-126584466D01*
X67565037Y-126414627D01*
X67547641Y-126238000D01*
X67565037Y-126061373D01*
X67616557Y-125891534D01*
X67700222Y-125735009D01*
X67729552Y-125699271D01*
X67812814Y-125597814D01*
X67914271Y-125514552D01*
X67950009Y-125485222D01*
X68106534Y-125401557D01*
X68276373Y-125350037D01*
X68342558Y-125343518D01*
X68408740Y-125337000D01*
X68497260Y-125337000D01*
X68563442Y-125343518D01*
X68563442Y-125343518D01*
G37*
G36*
X124474072Y-122350918D02*
G01*
X124719939Y-122452759D01*
X124831328Y-122527187D01*
X124941211Y-122600609D01*
X125129391Y-122788789D01*
X125178013Y-122861557D01*
X125233917Y-122945222D01*
X125277242Y-123010063D01*
X125379082Y-123255928D01*
X125431000Y-123516938D01*
X125431000Y-123783062D01*
X125379082Y-124044072D01*
X125277241Y-124289939D01*
X125129390Y-124511212D01*
X124941212Y-124699390D01*
X124719939Y-124847241D01*
X124719938Y-124847242D01*
X124719937Y-124847242D01*
X124474072Y-124949082D01*
X124213063Y-125001000D01*
X123946937Y-125001000D01*
X123685928Y-124949082D01*
X123440063Y-124847242D01*
X123440062Y-124847242D01*
X123440061Y-124847241D01*
X123218788Y-124699390D01*
X123030610Y-124511212D01*
X122882759Y-124289939D01*
X122780918Y-124044072D01*
X122729000Y-123783062D01*
X122729000Y-123516938D01*
X122780918Y-123255928D01*
X122882758Y-123010063D01*
X122926084Y-122945222D01*
X122981987Y-122861557D01*
X123030609Y-122788789D01*
X123218789Y-122600609D01*
X123328672Y-122527187D01*
X123440061Y-122452759D01*
X123685928Y-122350918D01*
X123946937Y-122299000D01*
X124213063Y-122299000D01*
X124474072Y-122350918D01*
X124474072Y-122350918D01*
G37*
G36*
X68563442Y-122803518D02*
G01*
X68629627Y-122810037D01*
X68799466Y-122861557D01*
X68955991Y-122945222D01*
X68991729Y-122974552D01*
X69093186Y-123057814D01*
X69176448Y-123159271D01*
X69205778Y-123195009D01*
X69289443Y-123351534D01*
X69340963Y-123521373D01*
X69358359Y-123698000D01*
X69340963Y-123874627D01*
X69289443Y-124044466D01*
X69205778Y-124200991D01*
X69176448Y-124236729D01*
X69093186Y-124338186D01*
X68991729Y-124421448D01*
X68955991Y-124450778D01*
X68799466Y-124534443D01*
X68629627Y-124585963D01*
X68563442Y-124592482D01*
X68497260Y-124599000D01*
X68408740Y-124599000D01*
X68342558Y-124592482D01*
X68276373Y-124585963D01*
X68106534Y-124534443D01*
X67950009Y-124450778D01*
X67914271Y-124421448D01*
X67812814Y-124338186D01*
X67729552Y-124236729D01*
X67700222Y-124200991D01*
X67616557Y-124044466D01*
X67565037Y-123874627D01*
X67547641Y-123698000D01*
X67565037Y-123521373D01*
X67616557Y-123351534D01*
X67700222Y-123195009D01*
X67729552Y-123159271D01*
X67812814Y-123057814D01*
X67914271Y-122974552D01*
X67950009Y-122945222D01*
X68106534Y-122861557D01*
X68276373Y-122810037D01*
X68342558Y-122803518D01*
X68408740Y-122797000D01*
X68497260Y-122797000D01*
X68563442Y-122803518D01*
X68563442Y-122803518D01*
G37*
G36*
X110121000Y-124091000D02*
G01*
X108319000Y-124091000D01*
X108319000Y-122289000D01*
X110121000Y-122289000D01*
X110121000Y-124091000D01*
X110121000Y-124091000D01*
G37*
G36*
X105041000Y-124091000D02*
G01*
X103239000Y-124091000D01*
X103239000Y-122289000D01*
X105041000Y-122289000D01*
X105041000Y-124091000D01*
X105041000Y-124091000D01*
G37*
G36*
X69354000Y-122059000D02*
G01*
X67552000Y-122059000D01*
X67552000Y-120257000D01*
X69354000Y-120257000D01*
X69354000Y-122059000D01*
X69354000Y-122059000D01*
G37*
G36*
X120731000Y-122001000D02*
G01*
X118029000Y-122001000D01*
X118029000Y-119299000D01*
X120731000Y-119299000D01*
X120731000Y-122001000D01*
X120731000Y-122001000D01*
G37*
G36*
X109330442Y-119755518D02*
G01*
X109396627Y-119762037D01*
X109566466Y-119813557D01*
X109722991Y-119897222D01*
X109758729Y-119926552D01*
X109860186Y-120009814D01*
X109943448Y-120111271D01*
X109972778Y-120147009D01*
X110056443Y-120303534D01*
X110107963Y-120473373D01*
X110125359Y-120650000D01*
X110107963Y-120826627D01*
X110056443Y-120996466D01*
X109972778Y-121152991D01*
X109943448Y-121188729D01*
X109860186Y-121290186D01*
X109758729Y-121373448D01*
X109722991Y-121402778D01*
X109566466Y-121486443D01*
X109396627Y-121537963D01*
X109330443Y-121544481D01*
X109264260Y-121551000D01*
X109175740Y-121551000D01*
X109109557Y-121544481D01*
X109043373Y-121537963D01*
X108873534Y-121486443D01*
X108717009Y-121402778D01*
X108681271Y-121373448D01*
X108579814Y-121290186D01*
X108496552Y-121188729D01*
X108467222Y-121152991D01*
X108383557Y-120996466D01*
X108332037Y-120826627D01*
X108314641Y-120650000D01*
X108332037Y-120473373D01*
X108383557Y-120303534D01*
X108467222Y-120147009D01*
X108496552Y-120111271D01*
X108579814Y-120009814D01*
X108681271Y-119926552D01*
X108717009Y-119897222D01*
X108873534Y-119813557D01*
X109043373Y-119762037D01*
X109109558Y-119755518D01*
X109175740Y-119749000D01*
X109264260Y-119749000D01*
X109330442Y-119755518D01*
X109330442Y-119755518D01*
G37*
G36*
X104250442Y-119755518D02*
G01*
X104316627Y-119762037D01*
X104486466Y-119813557D01*
X104642991Y-119897222D01*
X104678729Y-119926552D01*
X104780186Y-120009814D01*
X104863448Y-120111271D01*
X104892778Y-120147009D01*
X104976443Y-120303534D01*
X105027963Y-120473373D01*
X105045359Y-120650000D01*
X105027963Y-120826627D01*
X104976443Y-120996466D01*
X104892778Y-121152991D01*
X104863448Y-121188729D01*
X104780186Y-121290186D01*
X104678729Y-121373448D01*
X104642991Y-121402778D01*
X104486466Y-121486443D01*
X104316627Y-121537963D01*
X104250443Y-121544481D01*
X104184260Y-121551000D01*
X104095740Y-121551000D01*
X104029557Y-121544481D01*
X103963373Y-121537963D01*
X103793534Y-121486443D01*
X103637009Y-121402778D01*
X103601271Y-121373448D01*
X103499814Y-121290186D01*
X103416552Y-121188729D01*
X103387222Y-121152991D01*
X103303557Y-120996466D01*
X103252037Y-120826627D01*
X103234641Y-120650000D01*
X103252037Y-120473373D01*
X103303557Y-120303534D01*
X103387222Y-120147009D01*
X103416552Y-120111271D01*
X103499814Y-120009814D01*
X103601271Y-119926552D01*
X103637009Y-119897222D01*
X103793534Y-119813557D01*
X103963373Y-119762037D01*
X104029558Y-119755518D01*
X104095740Y-119749000D01*
X104184260Y-119749000D01*
X104250442Y-119755518D01*
X104250442Y-119755518D01*
G37*
G36*
X153836823Y-119811313D02*
G01*
X153997242Y-119859976D01*
X154066922Y-119897221D01*
X154145078Y-119938996D01*
X154274659Y-120045341D01*
X154381004Y-120174922D01*
X154381005Y-120174924D01*
X154460024Y-120322758D01*
X154508687Y-120483177D01*
X154525117Y-120650000D01*
X154508687Y-120816823D01*
X154460024Y-120977242D01*
X154449747Y-120996468D01*
X154381004Y-121125078D01*
X154274659Y-121254659D01*
X154145078Y-121361004D01*
X154145076Y-121361005D01*
X153997242Y-121440024D01*
X153836823Y-121488687D01*
X153711804Y-121501000D01*
X153628196Y-121501000D01*
X153503177Y-121488687D01*
X153342758Y-121440024D01*
X153194924Y-121361005D01*
X153194922Y-121361004D01*
X153065341Y-121254659D01*
X152958996Y-121125078D01*
X152890253Y-120996468D01*
X152879976Y-120977242D01*
X152831313Y-120816823D01*
X152814883Y-120650000D01*
X152831313Y-120483177D01*
X152879976Y-120322758D01*
X152958995Y-120174924D01*
X152958996Y-120174922D01*
X153065341Y-120045341D01*
X153194922Y-119938996D01*
X153273078Y-119897221D01*
X153342758Y-119859976D01*
X153503177Y-119811313D01*
X153628196Y-119799000D01*
X153711804Y-119799000D01*
X153836823Y-119811313D01*
X153836823Y-119811313D01*
G37*
G36*
X148475000Y-117741000D02*
G01*
X146673000Y-117741000D01*
X146673000Y-115939000D01*
X148475000Y-115939000D01*
X148475000Y-117741000D01*
X148475000Y-117741000D01*
G37*
G36*
X145144442Y-115945518D02*
G01*
X145210627Y-115952037D01*
X145380466Y-116003557D01*
X145536991Y-116087222D01*
X145572729Y-116116552D01*
X145674186Y-116199814D01*
X145757448Y-116301271D01*
X145786778Y-116337009D01*
X145870443Y-116493534D01*
X145921963Y-116663373D01*
X145939359Y-116840000D01*
X145921963Y-117016627D01*
X145870443Y-117186466D01*
X145786778Y-117342991D01*
X145757448Y-117378729D01*
X145674186Y-117480186D01*
X145572729Y-117563448D01*
X145536991Y-117592778D01*
X145380466Y-117676443D01*
X145210627Y-117727963D01*
X145144442Y-117734482D01*
X145078260Y-117741000D01*
X144989740Y-117741000D01*
X144923558Y-117734482D01*
X144857373Y-117727963D01*
X144687534Y-117676443D01*
X144531009Y-117592778D01*
X144495271Y-117563448D01*
X144393814Y-117480186D01*
X144310552Y-117378729D01*
X144281222Y-117342991D01*
X144197557Y-117186466D01*
X144146037Y-117016627D01*
X144128641Y-116840000D01*
X144146037Y-116663373D01*
X144197557Y-116493534D01*
X144281222Y-116337009D01*
X144310552Y-116301271D01*
X144393814Y-116199814D01*
X144495271Y-116116552D01*
X144531009Y-116087222D01*
X144687534Y-116003557D01*
X144857373Y-115952037D01*
X144923558Y-115945518D01*
X144989740Y-115939000D01*
X145078260Y-115939000D01*
X145144442Y-115945518D01*
X145144442Y-115945518D01*
G37*
G36*
X68817442Y-115310518D02*
G01*
X68883627Y-115317037D01*
X69053466Y-115368557D01*
X69209991Y-115452222D01*
X69245729Y-115481552D01*
X69347186Y-115564814D01*
X69430448Y-115666271D01*
X69459778Y-115702009D01*
X69543443Y-115858534D01*
X69594963Y-116028373D01*
X69612359Y-116205000D01*
X69594963Y-116381627D01*
X69543443Y-116551466D01*
X69459778Y-116707991D01*
X69430448Y-116743729D01*
X69347186Y-116845186D01*
X69245729Y-116928448D01*
X69209991Y-116957778D01*
X69053466Y-117041443D01*
X68883627Y-117092963D01*
X68817443Y-117099481D01*
X68751260Y-117106000D01*
X68662740Y-117106000D01*
X68596557Y-117099481D01*
X68530373Y-117092963D01*
X68360534Y-117041443D01*
X68204009Y-116957778D01*
X68168271Y-116928448D01*
X68066814Y-116845186D01*
X67983552Y-116743729D01*
X67954222Y-116707991D01*
X67870557Y-116551466D01*
X67819037Y-116381627D01*
X67801641Y-116205000D01*
X67819037Y-116028373D01*
X67870557Y-115858534D01*
X67954222Y-115702009D01*
X67983552Y-115666271D01*
X68066814Y-115564814D01*
X68168271Y-115481552D01*
X68204009Y-115452222D01*
X68360534Y-115368557D01*
X68530373Y-115317037D01*
X68596558Y-115310518D01*
X68662740Y-115304000D01*
X68751260Y-115304000D01*
X68817442Y-115310518D01*
X68817442Y-115310518D01*
G37*
G36*
X122771000Y-115151000D02*
G01*
X121069000Y-115151000D01*
X121069000Y-113449000D01*
X122771000Y-113449000D01*
X122771000Y-115151000D01*
X122771000Y-115151000D01*
G37*
G36*
X106846823Y-113461313D02*
G01*
X107007242Y-113509976D01*
X107139906Y-113580886D01*
X107155078Y-113588996D01*
X107284659Y-113695341D01*
X107391004Y-113824922D01*
X107391005Y-113824924D01*
X107470024Y-113972758D01*
X107518687Y-114133177D01*
X107535117Y-114300000D01*
X107518687Y-114466823D01*
X107470024Y-114627242D01*
X107399114Y-114759906D01*
X107391004Y-114775078D01*
X107284659Y-114904659D01*
X107155078Y-115011004D01*
X107155076Y-115011005D01*
X107007242Y-115090024D01*
X106846823Y-115138687D01*
X106721804Y-115151000D01*
X106638196Y-115151000D01*
X106513177Y-115138687D01*
X106352758Y-115090024D01*
X106204924Y-115011005D01*
X106204922Y-115011004D01*
X106075341Y-114904659D01*
X105968996Y-114775078D01*
X105960886Y-114759906D01*
X105889976Y-114627242D01*
X105841313Y-114466823D01*
X105824883Y-114300000D01*
X105841313Y-114133177D01*
X105889976Y-113972758D01*
X105968995Y-113824924D01*
X105968996Y-113824922D01*
X106075341Y-113695341D01*
X106204922Y-113588996D01*
X106220094Y-113580886D01*
X106352758Y-113509976D01*
X106513177Y-113461313D01*
X106638196Y-113449000D01*
X106721804Y-113449000D01*
X106846823Y-113461313D01*
X106846823Y-113461313D01*
G37*
G36*
X68817442Y-112770518D02*
G01*
X68883627Y-112777037D01*
X69053466Y-112828557D01*
X69209991Y-112912222D01*
X69245729Y-112941552D01*
X69347186Y-113024814D01*
X69430448Y-113126271D01*
X69459778Y-113162009D01*
X69543443Y-113318534D01*
X69594963Y-113488373D01*
X69612359Y-113665000D01*
X69594963Y-113841627D01*
X69543443Y-114011466D01*
X69459778Y-114167991D01*
X69430448Y-114203729D01*
X69347186Y-114305186D01*
X69245729Y-114388448D01*
X69209991Y-114417778D01*
X69053466Y-114501443D01*
X68883627Y-114552963D01*
X68817442Y-114559482D01*
X68751260Y-114566000D01*
X68662740Y-114566000D01*
X68596558Y-114559482D01*
X68530373Y-114552963D01*
X68360534Y-114501443D01*
X68204009Y-114417778D01*
X68168271Y-114388448D01*
X68066814Y-114305186D01*
X67983552Y-114203729D01*
X67954222Y-114167991D01*
X67870557Y-114011466D01*
X67819037Y-113841627D01*
X67801641Y-113665000D01*
X67819037Y-113488373D01*
X67870557Y-113318534D01*
X67954222Y-113162009D01*
X67983552Y-113126271D01*
X68066814Y-113024814D01*
X68168271Y-112941552D01*
X68204009Y-112912222D01*
X68360534Y-112828557D01*
X68530373Y-112777037D01*
X68596558Y-112770518D01*
X68662740Y-112764000D01*
X68751260Y-112764000D01*
X68817442Y-112770518D01*
X68817442Y-112770518D01*
G37*
G36*
X122086823Y-110921313D02*
G01*
X122247242Y-110969976D01*
X122379906Y-111040886D01*
X122395078Y-111048996D01*
X122524659Y-111155341D01*
X122631004Y-111284922D01*
X122631005Y-111284924D01*
X122710024Y-111432758D01*
X122758687Y-111593177D01*
X122775117Y-111760000D01*
X122758687Y-111926823D01*
X122710024Y-112087242D01*
X122639114Y-112219906D01*
X122631004Y-112235078D01*
X122524659Y-112364659D01*
X122395078Y-112471004D01*
X122395076Y-112471005D01*
X122247242Y-112550024D01*
X122086823Y-112598687D01*
X121961804Y-112611000D01*
X121878196Y-112611000D01*
X121753177Y-112598687D01*
X121592758Y-112550024D01*
X121444924Y-112471005D01*
X121444922Y-112471004D01*
X121315341Y-112364659D01*
X121208996Y-112235078D01*
X121200886Y-112219906D01*
X121129976Y-112087242D01*
X121081313Y-111926823D01*
X121064883Y-111760000D01*
X121081313Y-111593177D01*
X121129976Y-111432758D01*
X121208995Y-111284924D01*
X121208996Y-111284922D01*
X121315341Y-111155341D01*
X121444922Y-111048996D01*
X121460094Y-111040886D01*
X121592758Y-110969976D01*
X121753177Y-110921313D01*
X121878196Y-110909000D01*
X121961804Y-110909000D01*
X122086823Y-110921313D01*
X122086823Y-110921313D01*
G37*
G36*
X106846823Y-110921313D02*
G01*
X107007242Y-110969976D01*
X107139906Y-111040886D01*
X107155078Y-111048996D01*
X107284659Y-111155341D01*
X107391004Y-111284922D01*
X107391005Y-111284924D01*
X107470024Y-111432758D01*
X107518687Y-111593177D01*
X107535117Y-111760000D01*
X107518687Y-111926823D01*
X107470024Y-112087242D01*
X107399114Y-112219906D01*
X107391004Y-112235078D01*
X107284659Y-112364659D01*
X107155078Y-112471004D01*
X107155076Y-112471005D01*
X107007242Y-112550024D01*
X106846823Y-112598687D01*
X106721804Y-112611000D01*
X106638196Y-112611000D01*
X106513177Y-112598687D01*
X106352758Y-112550024D01*
X106204924Y-112471005D01*
X106204922Y-112471004D01*
X106075341Y-112364659D01*
X105968996Y-112235078D01*
X105960886Y-112219906D01*
X105889976Y-112087242D01*
X105841313Y-111926823D01*
X105824883Y-111760000D01*
X105841313Y-111593177D01*
X105889976Y-111432758D01*
X105968995Y-111284924D01*
X105968996Y-111284922D01*
X106075341Y-111155341D01*
X106204922Y-111048996D01*
X106220094Y-111040886D01*
X106352758Y-110969976D01*
X106513177Y-110921313D01*
X106638196Y-110909000D01*
X106721804Y-110909000D01*
X106846823Y-110921313D01*
X106846823Y-110921313D01*
G37*
G36*
X68817443Y-110230519D02*
G01*
X68883627Y-110237037D01*
X69053466Y-110288557D01*
X69209991Y-110372222D01*
X69245729Y-110401552D01*
X69347186Y-110484814D01*
X69420226Y-110573815D01*
X69459778Y-110622009D01*
X69543443Y-110778534D01*
X69594963Y-110948373D01*
X69612359Y-111125000D01*
X69594963Y-111301627D01*
X69543443Y-111471466D01*
X69459778Y-111627991D01*
X69430448Y-111663729D01*
X69347186Y-111765186D01*
X69245729Y-111848448D01*
X69209991Y-111877778D01*
X69053466Y-111961443D01*
X68883627Y-112012963D01*
X68817442Y-112019482D01*
X68751260Y-112026000D01*
X68662740Y-112026000D01*
X68596558Y-112019482D01*
X68530373Y-112012963D01*
X68360534Y-111961443D01*
X68204009Y-111877778D01*
X68168271Y-111848448D01*
X68066814Y-111765186D01*
X67983552Y-111663729D01*
X67954222Y-111627991D01*
X67870557Y-111471466D01*
X67819037Y-111301627D01*
X67801641Y-111125000D01*
X67819037Y-110948373D01*
X67870557Y-110778534D01*
X67954222Y-110622009D01*
X67993774Y-110573815D01*
X68066814Y-110484814D01*
X68168271Y-110401552D01*
X68204009Y-110372222D01*
X68360534Y-110288557D01*
X68530373Y-110237037D01*
X68596557Y-110230519D01*
X68662740Y-110224000D01*
X68751260Y-110224000D01*
X68817443Y-110230519D01*
X68817443Y-110230519D01*
G37*
G36*
X147430442Y-109595518D02*
G01*
X147496627Y-109602037D01*
X147666466Y-109653557D01*
X147822991Y-109737222D01*
X147858729Y-109766552D01*
X147960186Y-109849814D01*
X148040369Y-109947519D01*
X148072778Y-109987009D01*
X148156443Y-110143534D01*
X148207963Y-110313373D01*
X148225359Y-110490000D01*
X148207963Y-110666627D01*
X148156443Y-110836466D01*
X148072778Y-110992991D01*
X148043448Y-111028729D01*
X147960186Y-111130186D01*
X147858729Y-111213448D01*
X147822991Y-111242778D01*
X147666466Y-111326443D01*
X147496627Y-111377963D01*
X147430443Y-111384481D01*
X147364260Y-111391000D01*
X147275740Y-111391000D01*
X147209557Y-111384481D01*
X147143373Y-111377963D01*
X146973534Y-111326443D01*
X146817009Y-111242778D01*
X146781271Y-111213448D01*
X146679814Y-111130186D01*
X146596552Y-111028729D01*
X146567222Y-110992991D01*
X146483557Y-110836466D01*
X146432037Y-110666627D01*
X146414641Y-110490000D01*
X146432037Y-110313373D01*
X146483557Y-110143534D01*
X146567222Y-109987009D01*
X146599631Y-109947519D01*
X146679814Y-109849814D01*
X146781271Y-109766552D01*
X146817009Y-109737222D01*
X146973534Y-109653557D01*
X147143373Y-109602037D01*
X147209558Y-109595518D01*
X147275740Y-109589000D01*
X147364260Y-109589000D01*
X147430442Y-109595518D01*
X147430442Y-109595518D01*
G37*
G36*
X149970442Y-109595518D02*
G01*
X150036627Y-109602037D01*
X150206466Y-109653557D01*
X150362991Y-109737222D01*
X150398729Y-109766552D01*
X150500186Y-109849814D01*
X150580369Y-109947519D01*
X150612778Y-109987009D01*
X150696443Y-110143534D01*
X150747963Y-110313373D01*
X150765359Y-110490000D01*
X150747963Y-110666627D01*
X150696443Y-110836466D01*
X150612778Y-110992991D01*
X150583448Y-111028729D01*
X150500186Y-111130186D01*
X150398729Y-111213448D01*
X150362991Y-111242778D01*
X150206466Y-111326443D01*
X150036627Y-111377963D01*
X149970443Y-111384481D01*
X149904260Y-111391000D01*
X149815740Y-111391000D01*
X149749557Y-111384481D01*
X149683373Y-111377963D01*
X149513534Y-111326443D01*
X149357009Y-111242778D01*
X149321271Y-111213448D01*
X149219814Y-111130186D01*
X149136552Y-111028729D01*
X149107222Y-110992991D01*
X149023557Y-110836466D01*
X148972037Y-110666627D01*
X148954641Y-110490000D01*
X148972037Y-110313373D01*
X149023557Y-110143534D01*
X149107222Y-109987009D01*
X149139631Y-109947519D01*
X149219814Y-109849814D01*
X149321271Y-109766552D01*
X149357009Y-109737222D01*
X149513534Y-109653557D01*
X149683373Y-109602037D01*
X149749558Y-109595518D01*
X149815740Y-109589000D01*
X149904260Y-109589000D01*
X149970442Y-109595518D01*
X149970442Y-109595518D01*
G37*
G36*
X145681000Y-111391000D02*
G01*
X143879000Y-111391000D01*
X143879000Y-109589000D01*
X145681000Y-109589000D01*
X145681000Y-111391000D01*
X145681000Y-111391000D01*
G37*
G36*
X153918228Y-109671703D02*
G01*
X154073100Y-109735853D01*
X154212481Y-109828985D01*
X154331015Y-109947519D01*
X154424147Y-110086900D01*
X154488297Y-110241772D01*
X154521000Y-110406184D01*
X154521000Y-110573816D01*
X154488297Y-110738228D01*
X154424147Y-110893100D01*
X154331015Y-111032481D01*
X154212481Y-111151015D01*
X154073100Y-111244147D01*
X153918228Y-111308297D01*
X153753816Y-111341000D01*
X153586184Y-111341000D01*
X153421772Y-111308297D01*
X153266900Y-111244147D01*
X153127519Y-111151015D01*
X153008985Y-111032481D01*
X152915853Y-110893100D01*
X152851703Y-110738228D01*
X152819000Y-110573816D01*
X152819000Y-110406184D01*
X152851703Y-110241772D01*
X152915853Y-110086900D01*
X153008985Y-109947519D01*
X153127519Y-109828985D01*
X153266900Y-109735853D01*
X153421772Y-109671703D01*
X153586184Y-109639000D01*
X153753816Y-109639000D01*
X153918228Y-109671703D01*
X153918228Y-109671703D01*
G37*
G36*
X106846823Y-108381313D02*
G01*
X107007242Y-108429976D01*
X107139906Y-108500886D01*
X107155078Y-108508996D01*
X107284659Y-108615341D01*
X107391004Y-108744922D01*
X107391005Y-108744924D01*
X107470024Y-108892758D01*
X107518687Y-109053177D01*
X107535117Y-109220000D01*
X107518687Y-109386823D01*
X107470024Y-109547242D01*
X107440735Y-109602037D01*
X107391004Y-109695078D01*
X107284659Y-109824659D01*
X107155078Y-109931004D01*
X107155076Y-109931005D01*
X107007242Y-110010024D01*
X106846823Y-110058687D01*
X106721804Y-110071000D01*
X106638196Y-110071000D01*
X106513177Y-110058687D01*
X106352758Y-110010024D01*
X106204924Y-109931005D01*
X106204922Y-109931004D01*
X106075341Y-109824659D01*
X105968996Y-109695078D01*
X105919265Y-109602037D01*
X105889976Y-109547242D01*
X105841313Y-109386823D01*
X105824883Y-109220000D01*
X105841313Y-109053177D01*
X105889976Y-108892758D01*
X105968995Y-108744924D01*
X105968996Y-108744922D01*
X106075341Y-108615341D01*
X106204922Y-108508996D01*
X106220094Y-108500886D01*
X106352758Y-108429976D01*
X106513177Y-108381313D01*
X106638196Y-108369000D01*
X106721804Y-108369000D01*
X106846823Y-108381313D01*
X106846823Y-108381313D01*
G37*
G36*
X122086823Y-108381313D02*
G01*
X122247242Y-108429976D01*
X122379906Y-108500886D01*
X122395078Y-108508996D01*
X122524659Y-108615341D01*
X122631004Y-108744922D01*
X122631005Y-108744924D01*
X122710024Y-108892758D01*
X122758687Y-109053177D01*
X122775117Y-109220000D01*
X122758687Y-109386823D01*
X122710024Y-109547242D01*
X122680735Y-109602037D01*
X122631004Y-109695078D01*
X122524659Y-109824659D01*
X122395078Y-109931004D01*
X122395076Y-109931005D01*
X122247242Y-110010024D01*
X122086823Y-110058687D01*
X121961804Y-110071000D01*
X121878196Y-110071000D01*
X121753177Y-110058687D01*
X121592758Y-110010024D01*
X121444924Y-109931005D01*
X121444922Y-109931004D01*
X121315341Y-109824659D01*
X121208996Y-109695078D01*
X121159265Y-109602037D01*
X121129976Y-109547242D01*
X121081313Y-109386823D01*
X121064883Y-109220000D01*
X121081313Y-109053177D01*
X121129976Y-108892758D01*
X121208995Y-108744924D01*
X121208996Y-108744922D01*
X121315341Y-108615341D01*
X121444922Y-108508996D01*
X121460094Y-108500886D01*
X121592758Y-108429976D01*
X121753177Y-108381313D01*
X121878196Y-108369000D01*
X121961804Y-108369000D01*
X122086823Y-108381313D01*
X122086823Y-108381313D01*
G37*
G36*
X69608000Y-109486000D02*
G01*
X67806000Y-109486000D01*
X67806000Y-107684000D01*
X69608000Y-107684000D01*
X69608000Y-109486000D01*
X69608000Y-109486000D01*
G37*
G36*
X129788228Y-107131703D02*
G01*
X129943100Y-107195853D01*
X130082481Y-107288985D01*
X130201015Y-107407519D01*
X130294147Y-107546900D01*
X130358297Y-107701772D01*
X130391000Y-107866184D01*
X130391000Y-108033816D01*
X130358297Y-108198228D01*
X130294147Y-108353100D01*
X130201015Y-108492481D01*
X130082481Y-108611015D01*
X129943100Y-108704147D01*
X129788228Y-108768297D01*
X129623816Y-108801000D01*
X129456184Y-108801000D01*
X129291772Y-108768297D01*
X129136900Y-108704147D01*
X128997519Y-108611015D01*
X128878985Y-108492481D01*
X128785853Y-108353100D01*
X128721703Y-108198228D01*
X128689000Y-108033816D01*
X128689000Y-107866184D01*
X128721703Y-107701772D01*
X128785853Y-107546900D01*
X128878985Y-107407519D01*
X128997519Y-107288985D01*
X129136900Y-107195853D01*
X129291772Y-107131703D01*
X129456184Y-107099000D01*
X129623816Y-107099000D01*
X129788228Y-107131703D01*
X129788228Y-107131703D01*
G37*
G36*
X139866823Y-107111313D02*
G01*
X140027242Y-107159976D01*
X140094361Y-107195852D01*
X140175078Y-107238996D01*
X140304659Y-107345341D01*
X140411004Y-107474922D01*
X140411005Y-107474924D01*
X140490024Y-107622758D01*
X140538687Y-107783177D01*
X140555117Y-107950000D01*
X140538687Y-108116823D01*
X140490024Y-108277242D01*
X140449477Y-108353100D01*
X140411004Y-108425078D01*
X140304659Y-108554659D01*
X140175078Y-108661004D01*
X140175076Y-108661005D01*
X140027242Y-108740024D01*
X139866823Y-108788687D01*
X139741804Y-108801000D01*
X139658196Y-108801000D01*
X139533177Y-108788687D01*
X139372758Y-108740024D01*
X139224924Y-108661005D01*
X139224922Y-108661004D01*
X139095341Y-108554659D01*
X138988996Y-108425078D01*
X138950523Y-108353100D01*
X138909976Y-108277242D01*
X138861313Y-108116823D01*
X138844883Y-107950000D01*
X138861313Y-107783177D01*
X138909976Y-107622758D01*
X138988995Y-107474924D01*
X138988996Y-107474922D01*
X139095341Y-107345341D01*
X139224922Y-107238996D01*
X139305639Y-107195852D01*
X139372758Y-107159976D01*
X139533177Y-107111313D01*
X139658196Y-107099000D01*
X139741804Y-107099000D01*
X139866823Y-107111313D01*
X139866823Y-107111313D01*
G37*
G36*
X106846823Y-105841313D02*
G01*
X107007242Y-105889976D01*
X107139906Y-105960886D01*
X107155078Y-105968996D01*
X107284659Y-106075341D01*
X107391004Y-106204922D01*
X107391005Y-106204924D01*
X107470024Y-106352758D01*
X107518687Y-106513177D01*
X107535117Y-106680000D01*
X107518687Y-106846823D01*
X107470024Y-107007242D01*
X107420978Y-107099000D01*
X107391004Y-107155078D01*
X107284659Y-107284659D01*
X107155078Y-107391004D01*
X107155076Y-107391005D01*
X107007242Y-107470024D01*
X106846823Y-107518687D01*
X106721804Y-107531000D01*
X106638196Y-107531000D01*
X106513177Y-107518687D01*
X106352758Y-107470024D01*
X106204924Y-107391005D01*
X106204922Y-107391004D01*
X106075341Y-107284659D01*
X105968996Y-107155078D01*
X105939022Y-107099000D01*
X105889976Y-107007242D01*
X105841313Y-106846823D01*
X105824883Y-106680000D01*
X105841313Y-106513177D01*
X105889976Y-106352758D01*
X105968995Y-106204924D01*
X105968996Y-106204922D01*
X106075341Y-106075341D01*
X106204922Y-105968996D01*
X106220094Y-105960886D01*
X106352758Y-105889976D01*
X106513177Y-105841313D01*
X106638196Y-105829000D01*
X106721804Y-105829000D01*
X106846823Y-105841313D01*
X106846823Y-105841313D01*
G37*
G36*
X122086823Y-105841313D02*
G01*
X122247242Y-105889976D01*
X122379906Y-105960886D01*
X122395078Y-105968996D01*
X122524659Y-106075341D01*
X122631004Y-106204922D01*
X122631005Y-106204924D01*
X122710024Y-106352758D01*
X122758687Y-106513177D01*
X122775117Y-106680000D01*
X122758687Y-106846823D01*
X122710024Y-107007242D01*
X122660978Y-107099000D01*
X122631004Y-107155078D01*
X122524659Y-107284659D01*
X122395078Y-107391004D01*
X122395076Y-107391005D01*
X122247242Y-107470024D01*
X122086823Y-107518687D01*
X121961804Y-107531000D01*
X121878196Y-107531000D01*
X121753177Y-107518687D01*
X121592758Y-107470024D01*
X121444924Y-107391005D01*
X121444922Y-107391004D01*
X121315341Y-107284659D01*
X121208996Y-107155078D01*
X121179022Y-107099000D01*
X121129976Y-107007242D01*
X121081313Y-106846823D01*
X121064883Y-106680000D01*
X121081313Y-106513177D01*
X121129976Y-106352758D01*
X121208995Y-106204924D01*
X121208996Y-106204922D01*
X121315341Y-106075341D01*
X121444922Y-105968996D01*
X121460094Y-105960886D01*
X121592758Y-105889976D01*
X121753177Y-105841313D01*
X121878196Y-105829000D01*
X121961804Y-105829000D01*
X122086823Y-105841313D01*
X122086823Y-105841313D01*
G37*
G36*
X153836823Y-104571313D02*
G01*
X153997242Y-104619976D01*
X154038874Y-104642229D01*
X154145078Y-104698996D01*
X154274659Y-104805341D01*
X154381004Y-104934922D01*
X154381005Y-104934924D01*
X154460024Y-105082758D01*
X154508687Y-105243177D01*
X154525117Y-105410000D01*
X154508687Y-105576823D01*
X154460024Y-105737242D01*
X154410978Y-105829000D01*
X154381004Y-105885078D01*
X154274659Y-106014659D01*
X154145078Y-106121004D01*
X154145076Y-106121005D01*
X153997242Y-106200024D01*
X153836823Y-106248687D01*
X153711804Y-106261000D01*
X153628196Y-106261000D01*
X153503177Y-106248687D01*
X153342758Y-106200024D01*
X153194924Y-106121005D01*
X153194922Y-106121004D01*
X153065341Y-106014659D01*
X152958996Y-105885078D01*
X152929022Y-105829000D01*
X152879976Y-105737242D01*
X152831313Y-105576823D01*
X152814883Y-105410000D01*
X152831313Y-105243177D01*
X152879976Y-105082758D01*
X152958995Y-104934924D01*
X152958996Y-104934922D01*
X153065341Y-104805341D01*
X153194922Y-104698996D01*
X153301126Y-104642229D01*
X153342758Y-104619976D01*
X153503177Y-104571313D01*
X153628196Y-104559000D01*
X153711804Y-104559000D01*
X153836823Y-104571313D01*
X153836823Y-104571313D01*
G37*
G36*
X139866823Y-103555313D02*
G01*
X140027242Y-103603976D01*
X140159906Y-103674886D01*
X140175078Y-103682996D01*
X140304659Y-103789341D01*
X140411004Y-103918922D01*
X140411005Y-103918924D01*
X140490024Y-104066758D01*
X140538687Y-104227177D01*
X140555117Y-104394000D01*
X140538687Y-104560823D01*
X140490024Y-104721242D01*
X140449477Y-104797100D01*
X140411004Y-104869078D01*
X140304659Y-104998659D01*
X140175078Y-105105004D01*
X140175076Y-105105005D01*
X140027242Y-105184024D01*
X139866823Y-105232687D01*
X139741804Y-105245000D01*
X139658196Y-105245000D01*
X139533177Y-105232687D01*
X139372758Y-105184024D01*
X139224924Y-105105005D01*
X139224922Y-105105004D01*
X139095341Y-104998659D01*
X138988996Y-104869078D01*
X138950523Y-104797100D01*
X138909976Y-104721242D01*
X138861313Y-104560823D01*
X138844883Y-104394000D01*
X138861313Y-104227177D01*
X138909976Y-104066758D01*
X138988995Y-103918924D01*
X138988996Y-103918922D01*
X139095341Y-103789341D01*
X139224922Y-103682996D01*
X139240094Y-103674886D01*
X139372758Y-103603976D01*
X139533177Y-103555313D01*
X139658196Y-103543000D01*
X139741804Y-103543000D01*
X139866823Y-103555313D01*
X139866823Y-103555313D01*
G37*
G36*
X129788228Y-103575703D02*
G01*
X129943100Y-103639853D01*
X130082481Y-103732985D01*
X130201015Y-103851519D01*
X130294147Y-103990900D01*
X130358297Y-104145772D01*
X130391000Y-104310184D01*
X130391000Y-104477816D01*
X130358297Y-104642228D01*
X130294147Y-104797100D01*
X130201015Y-104936481D01*
X130082481Y-105055015D01*
X129943100Y-105148147D01*
X129788228Y-105212297D01*
X129623816Y-105245000D01*
X129456184Y-105245000D01*
X129291772Y-105212297D01*
X129136900Y-105148147D01*
X128997519Y-105055015D01*
X128878985Y-104936481D01*
X128785853Y-104797100D01*
X128721703Y-104642228D01*
X128689000Y-104477816D01*
X128689000Y-104310184D01*
X128721703Y-104145772D01*
X128785853Y-103990900D01*
X128878985Y-103851519D01*
X128997519Y-103732985D01*
X129136900Y-103639853D01*
X129291772Y-103575703D01*
X129456184Y-103543000D01*
X129623816Y-103543000D01*
X129788228Y-103575703D01*
X129788228Y-103575703D01*
G37*
G36*
X102501000Y-105041000D02*
G01*
X100699000Y-105041000D01*
X100699000Y-103239000D01*
X102501000Y-103239000D01*
X102501000Y-105041000D01*
X102501000Y-105041000D01*
G37*
G36*
X106846823Y-103301313D02*
G01*
X107007242Y-103349976D01*
X107069373Y-103383186D01*
X107155078Y-103428996D01*
X107284659Y-103535341D01*
X107391004Y-103664922D01*
X107391005Y-103664924D01*
X107470024Y-103812758D01*
X107518687Y-103973177D01*
X107535117Y-104140000D01*
X107518687Y-104306823D01*
X107470024Y-104467242D01*
X107464372Y-104477816D01*
X107391004Y-104615078D01*
X107284659Y-104744659D01*
X107155078Y-104851004D01*
X107155076Y-104851005D01*
X107007242Y-104930024D01*
X106846823Y-104978687D01*
X106721804Y-104991000D01*
X106638196Y-104991000D01*
X106513177Y-104978687D01*
X106352758Y-104930024D01*
X106204924Y-104851005D01*
X106204922Y-104851004D01*
X106075341Y-104744659D01*
X105968996Y-104615078D01*
X105895628Y-104477816D01*
X105889976Y-104467242D01*
X105841313Y-104306823D01*
X105824883Y-104140000D01*
X105841313Y-103973177D01*
X105889976Y-103812758D01*
X105968995Y-103664924D01*
X105968996Y-103664922D01*
X106075341Y-103535341D01*
X106204922Y-103428996D01*
X106290627Y-103383186D01*
X106352758Y-103349976D01*
X106513177Y-103301313D01*
X106638196Y-103289000D01*
X106721804Y-103289000D01*
X106846823Y-103301313D01*
X106846823Y-103301313D01*
G37*
G36*
X122086823Y-103301313D02*
G01*
X122247242Y-103349976D01*
X122309373Y-103383186D01*
X122395078Y-103428996D01*
X122524659Y-103535341D01*
X122631004Y-103664922D01*
X122631005Y-103664924D01*
X122710024Y-103812758D01*
X122758687Y-103973177D01*
X122775117Y-104140000D01*
X122758687Y-104306823D01*
X122710024Y-104467242D01*
X122704372Y-104477816D01*
X122631004Y-104615078D01*
X122524659Y-104744659D01*
X122395078Y-104851004D01*
X122395076Y-104851005D01*
X122247242Y-104930024D01*
X122086823Y-104978687D01*
X121961804Y-104991000D01*
X121878196Y-104991000D01*
X121753177Y-104978687D01*
X121592758Y-104930024D01*
X121444924Y-104851005D01*
X121444922Y-104851004D01*
X121315341Y-104744659D01*
X121208996Y-104615078D01*
X121135628Y-104477816D01*
X121129976Y-104467242D01*
X121081313Y-104306823D01*
X121064883Y-104140000D01*
X121081313Y-103973177D01*
X121129976Y-103812758D01*
X121208995Y-103664924D01*
X121208996Y-103664922D01*
X121315341Y-103535341D01*
X121444922Y-103428996D01*
X121530627Y-103383186D01*
X121592758Y-103349976D01*
X121753177Y-103301313D01*
X121878196Y-103289000D01*
X121961804Y-103289000D01*
X122086823Y-103301313D01*
X122086823Y-103301313D01*
G37*
G36*
X144890442Y-101975518D02*
G01*
X144956627Y-101982037D01*
X145126466Y-102033557D01*
X145282991Y-102117222D01*
X145309580Y-102139043D01*
X145420186Y-102229814D01*
X145503448Y-102331271D01*
X145532778Y-102367009D01*
X145616443Y-102523534D01*
X145667963Y-102693373D01*
X145685359Y-102870000D01*
X145667963Y-103046627D01*
X145616443Y-103216466D01*
X145532778Y-103372991D01*
X145524411Y-103383186D01*
X145420186Y-103510186D01*
X145318729Y-103593448D01*
X145282991Y-103622778D01*
X145126466Y-103706443D01*
X144956627Y-103757963D01*
X144890443Y-103764481D01*
X144824260Y-103771000D01*
X144735740Y-103771000D01*
X144669557Y-103764481D01*
X144603373Y-103757963D01*
X144433534Y-103706443D01*
X144277009Y-103622778D01*
X144241271Y-103593448D01*
X144139814Y-103510186D01*
X144035589Y-103383186D01*
X144027222Y-103372991D01*
X143943557Y-103216466D01*
X143892037Y-103046627D01*
X143874641Y-102870000D01*
X143892037Y-102693373D01*
X143943557Y-102523534D01*
X144027222Y-102367009D01*
X144056552Y-102331271D01*
X144139814Y-102229814D01*
X144250420Y-102139043D01*
X144277009Y-102117222D01*
X144433534Y-102033557D01*
X144603373Y-101982037D01*
X144669558Y-101975518D01*
X144735740Y-101969000D01*
X144824260Y-101969000D01*
X144890442Y-101975518D01*
X144890442Y-101975518D01*
G37*
G36*
X148221000Y-103771000D02*
G01*
X146419000Y-103771000D01*
X146419000Y-101969000D01*
X148221000Y-101969000D01*
X148221000Y-103771000D01*
X148221000Y-103771000D01*
G37*
G36*
X79485142Y-102139042D02*
G01*
X79633101Y-102200329D01*
X79766255Y-102289299D01*
X79879501Y-102402545D01*
X79968471Y-102535699D01*
X80029758Y-102683658D01*
X80061000Y-102840725D01*
X80061000Y-103000875D01*
X80029758Y-103157942D01*
X79968471Y-103305901D01*
X79879501Y-103439055D01*
X79766255Y-103552301D01*
X79633101Y-103641271D01*
X79485142Y-103702558D01*
X79328075Y-103733800D01*
X79167925Y-103733800D01*
X79010858Y-103702558D01*
X78862899Y-103641271D01*
X78729745Y-103552301D01*
X78616499Y-103439055D01*
X78527529Y-103305901D01*
X78466242Y-103157942D01*
X78435000Y-103000875D01*
X78435000Y-102840725D01*
X78466242Y-102683658D01*
X78527529Y-102535699D01*
X78616499Y-102402545D01*
X78729745Y-102289299D01*
X78862899Y-102200329D01*
X79010858Y-102139042D01*
X79167925Y-102107800D01*
X79328075Y-102107800D01*
X79485142Y-102139042D01*
X79485142Y-102139042D01*
G37*
G36*
X94725142Y-102139042D02*
G01*
X94873101Y-102200329D01*
X95006255Y-102289299D01*
X95119501Y-102402545D01*
X95208471Y-102535699D01*
X95269758Y-102683658D01*
X95301000Y-102840725D01*
X95301000Y-103000875D01*
X95269758Y-103157942D01*
X95208471Y-103305901D01*
X95119501Y-103439055D01*
X95006255Y-103552301D01*
X94873101Y-103641271D01*
X94725142Y-103702558D01*
X94568075Y-103733800D01*
X94407925Y-103733800D01*
X94250858Y-103702558D01*
X94102899Y-103641271D01*
X93969745Y-103552301D01*
X93856499Y-103439055D01*
X93767529Y-103305901D01*
X93706242Y-103157942D01*
X93675000Y-103000875D01*
X93675000Y-102840725D01*
X93706242Y-102683658D01*
X93767529Y-102535699D01*
X93856499Y-102402545D01*
X93969745Y-102289299D01*
X94102899Y-102200329D01*
X94250858Y-102139042D01*
X94407925Y-102107800D01*
X94568075Y-102107800D01*
X94725142Y-102139042D01*
X94725142Y-102139042D01*
G37*
G36*
X68817443Y-101848519D02*
G01*
X68883627Y-101855037D01*
X69053466Y-101906557D01*
X69209991Y-101990222D01*
X69245729Y-102019552D01*
X69347186Y-102102814D01*
X69427213Y-102200329D01*
X69459778Y-102240009D01*
X69543443Y-102396534D01*
X69594963Y-102566373D01*
X69612359Y-102743000D01*
X69594963Y-102919627D01*
X69543443Y-103089466D01*
X69459778Y-103245991D01*
X69430448Y-103281729D01*
X69347186Y-103383186D01*
X69245729Y-103466448D01*
X69209991Y-103495778D01*
X69209989Y-103495779D01*
X69104249Y-103552299D01*
X69053466Y-103579443D01*
X68883627Y-103630963D01*
X68817442Y-103637482D01*
X68751260Y-103644000D01*
X68662740Y-103644000D01*
X68596558Y-103637482D01*
X68530373Y-103630963D01*
X68360534Y-103579443D01*
X68309752Y-103552299D01*
X68204011Y-103495779D01*
X68204009Y-103495778D01*
X68168271Y-103466448D01*
X68066814Y-103383186D01*
X67983552Y-103281729D01*
X67954222Y-103245991D01*
X67870557Y-103089466D01*
X67819037Y-102919627D01*
X67801641Y-102743000D01*
X67819037Y-102566373D01*
X67870557Y-102396534D01*
X67954222Y-102240009D01*
X67986787Y-102200329D01*
X68066814Y-102102814D01*
X68168271Y-102019552D01*
X68204009Y-101990222D01*
X68360534Y-101906557D01*
X68530373Y-101855037D01*
X68596557Y-101848519D01*
X68662740Y-101842000D01*
X68751260Y-101842000D01*
X68817443Y-101848519D01*
X68817443Y-101848519D01*
G37*
G36*
X101710443Y-100705519D02*
G01*
X101776627Y-100712037D01*
X101946466Y-100763557D01*
X101946468Y-100763558D01*
X101950851Y-100765901D01*
X102102991Y-100847222D01*
X102138729Y-100876552D01*
X102240186Y-100959814D01*
X102323448Y-101061271D01*
X102352778Y-101097009D01*
X102436443Y-101253534D01*
X102487963Y-101423373D01*
X102505359Y-101600000D01*
X102487963Y-101776627D01*
X102436443Y-101946466D01*
X102352778Y-102102991D01*
X102323448Y-102138729D01*
X102240186Y-102240186D01*
X102138729Y-102323448D01*
X102102991Y-102352778D01*
X101946466Y-102436443D01*
X101776627Y-102487963D01*
X101710442Y-102494482D01*
X101644260Y-102501000D01*
X101555740Y-102501000D01*
X101489558Y-102494482D01*
X101423373Y-102487963D01*
X101253534Y-102436443D01*
X101097009Y-102352778D01*
X101061271Y-102323448D01*
X100959814Y-102240186D01*
X100876552Y-102138729D01*
X100847222Y-102102991D01*
X100763557Y-101946466D01*
X100712037Y-101776627D01*
X100694641Y-101600000D01*
X100712037Y-101423373D01*
X100763557Y-101253534D01*
X100847222Y-101097009D01*
X100876552Y-101061271D01*
X100959814Y-100959814D01*
X101061271Y-100876552D01*
X101097009Y-100847222D01*
X101249149Y-100765901D01*
X101253532Y-100763558D01*
X101253534Y-100763557D01*
X101423373Y-100712037D01*
X101489557Y-100705519D01*
X101555740Y-100699000D01*
X101644260Y-100699000D01*
X101710443Y-100705519D01*
X101710443Y-100705519D01*
G37*
G36*
X122086823Y-100761313D02*
G01*
X122247242Y-100809976D01*
X122309373Y-100843186D01*
X122395078Y-100888996D01*
X122524659Y-100995341D01*
X122631004Y-101124922D01*
X122631005Y-101124924D01*
X122710024Y-101272758D01*
X122758687Y-101433177D01*
X122775117Y-101600000D01*
X122758687Y-101766823D01*
X122755713Y-101776627D01*
X122716299Y-101906558D01*
X122710024Y-101927242D01*
X122680735Y-101982037D01*
X122631004Y-102075078D01*
X122524659Y-102204659D01*
X122395078Y-102311004D01*
X122395076Y-102311005D01*
X122247242Y-102390024D01*
X122086823Y-102438687D01*
X121961804Y-102451000D01*
X121878196Y-102451000D01*
X121753177Y-102438687D01*
X121592758Y-102390024D01*
X121444924Y-102311005D01*
X121444922Y-102311004D01*
X121315341Y-102204659D01*
X121208996Y-102075078D01*
X121159265Y-101982037D01*
X121129976Y-101927242D01*
X121123702Y-101906558D01*
X121084287Y-101776627D01*
X121081313Y-101766823D01*
X121064883Y-101600000D01*
X121081313Y-101433177D01*
X121129976Y-101272758D01*
X121208995Y-101124924D01*
X121208996Y-101124922D01*
X121315341Y-100995341D01*
X121444922Y-100888996D01*
X121530627Y-100843186D01*
X121592758Y-100809976D01*
X121753177Y-100761313D01*
X121878196Y-100749000D01*
X121961804Y-100749000D01*
X122086823Y-100761313D01*
X122086823Y-100761313D01*
G37*
G36*
X106846823Y-100761313D02*
G01*
X107007242Y-100809976D01*
X107069373Y-100843186D01*
X107155078Y-100888996D01*
X107284659Y-100995341D01*
X107391004Y-101124922D01*
X107391005Y-101124924D01*
X107470024Y-101272758D01*
X107518687Y-101433177D01*
X107535117Y-101600000D01*
X107518687Y-101766823D01*
X107515713Y-101776627D01*
X107476299Y-101906558D01*
X107470024Y-101927242D01*
X107440735Y-101982037D01*
X107391004Y-102075078D01*
X107284659Y-102204659D01*
X107155078Y-102311004D01*
X107155076Y-102311005D01*
X107007242Y-102390024D01*
X106846823Y-102438687D01*
X106721804Y-102451000D01*
X106638196Y-102451000D01*
X106513177Y-102438687D01*
X106352758Y-102390024D01*
X106204924Y-102311005D01*
X106204922Y-102311004D01*
X106075341Y-102204659D01*
X105968996Y-102075078D01*
X105919265Y-101982037D01*
X105889976Y-101927242D01*
X105883702Y-101906558D01*
X105844287Y-101776627D01*
X105841313Y-101766823D01*
X105824883Y-101600000D01*
X105841313Y-101433177D01*
X105889976Y-101272758D01*
X105968995Y-101124924D01*
X105968996Y-101124922D01*
X106075341Y-100995341D01*
X106204922Y-100888996D01*
X106290627Y-100843186D01*
X106352758Y-100809976D01*
X106513177Y-100761313D01*
X106638196Y-100749000D01*
X106721804Y-100749000D01*
X106846823Y-100761313D01*
X106846823Y-100761313D01*
G37*
G36*
X129788228Y-100019703D02*
G01*
X129943100Y-100083853D01*
X130082481Y-100176985D01*
X130201015Y-100295519D01*
X130294147Y-100434900D01*
X130358297Y-100589772D01*
X130391000Y-100754184D01*
X130391000Y-100921816D01*
X130358297Y-101086228D01*
X130294147Y-101241100D01*
X130201015Y-101380481D01*
X130082481Y-101499015D01*
X129943100Y-101592147D01*
X129788228Y-101656297D01*
X129623816Y-101689000D01*
X129456184Y-101689000D01*
X129291772Y-101656297D01*
X129136900Y-101592147D01*
X128997519Y-101499015D01*
X128878985Y-101380481D01*
X128785853Y-101241100D01*
X128721703Y-101086228D01*
X128689000Y-100921816D01*
X128689000Y-100754184D01*
X128721703Y-100589772D01*
X128785853Y-100434900D01*
X128878985Y-100295519D01*
X128997519Y-100176985D01*
X129136900Y-100083853D01*
X129291772Y-100019703D01*
X129456184Y-99987000D01*
X129623816Y-99987000D01*
X129788228Y-100019703D01*
X129788228Y-100019703D01*
G37*
G36*
X139866823Y-99999313D02*
G01*
X140027242Y-100047976D01*
X140094361Y-100083852D01*
X140175078Y-100126996D01*
X140304659Y-100233341D01*
X140411004Y-100362922D01*
X140411005Y-100362924D01*
X140490024Y-100510758D01*
X140538687Y-100671177D01*
X140555117Y-100838000D01*
X140538687Y-101004823D01*
X140508602Y-101104000D01*
X140490839Y-101162557D01*
X140490024Y-101165242D01*
X140449477Y-101241100D01*
X140411004Y-101313078D01*
X140304659Y-101442659D01*
X140175078Y-101549004D01*
X140175076Y-101549005D01*
X140027242Y-101628024D01*
X139866823Y-101676687D01*
X139741804Y-101689000D01*
X139658196Y-101689000D01*
X139533177Y-101676687D01*
X139372758Y-101628024D01*
X139224924Y-101549005D01*
X139224922Y-101549004D01*
X139095341Y-101442659D01*
X138988996Y-101313078D01*
X138950523Y-101241100D01*
X138909976Y-101165242D01*
X138909162Y-101162557D01*
X138891398Y-101104000D01*
X138861313Y-101004823D01*
X138844883Y-100838000D01*
X138861313Y-100671177D01*
X138909976Y-100510758D01*
X138988995Y-100362924D01*
X138988996Y-100362922D01*
X139095341Y-100233341D01*
X139224922Y-100126996D01*
X139305639Y-100083852D01*
X139372758Y-100047976D01*
X139533177Y-99999313D01*
X139658196Y-99987000D01*
X139741804Y-99987000D01*
X139866823Y-99999313D01*
X139866823Y-99999313D01*
G37*
G36*
X94725142Y-99599042D02*
G01*
X94873101Y-99660329D01*
X95006255Y-99749299D01*
X95119501Y-99862545D01*
X95208471Y-99995699D01*
X95269758Y-100143658D01*
X95301000Y-100300725D01*
X95301000Y-100460875D01*
X95269758Y-100617942D01*
X95208471Y-100765901D01*
X95119501Y-100899055D01*
X95006255Y-101012301D01*
X94873101Y-101101271D01*
X94725142Y-101162558D01*
X94568075Y-101193800D01*
X94407925Y-101193800D01*
X94250858Y-101162558D01*
X94102899Y-101101271D01*
X93969745Y-101012301D01*
X93856499Y-100899055D01*
X93767529Y-100765901D01*
X93706242Y-100617942D01*
X93675000Y-100460875D01*
X93675000Y-100300725D01*
X93706242Y-100143658D01*
X93767529Y-99995699D01*
X93856499Y-99862545D01*
X93969745Y-99749299D01*
X94102899Y-99660329D01*
X94250858Y-99599042D01*
X94407925Y-99567800D01*
X94568075Y-99567800D01*
X94725142Y-99599042D01*
X94725142Y-99599042D01*
G37*
G36*
X79485142Y-99599042D02*
G01*
X79633101Y-99660329D01*
X79766255Y-99749299D01*
X79879501Y-99862545D01*
X79968471Y-99995699D01*
X80029758Y-100143658D01*
X80061000Y-100300725D01*
X80061000Y-100460875D01*
X80029758Y-100617942D01*
X79968471Y-100765901D01*
X79879501Y-100899055D01*
X79766255Y-101012301D01*
X79633101Y-101101271D01*
X79485142Y-101162558D01*
X79328075Y-101193800D01*
X79167925Y-101193800D01*
X79010858Y-101162558D01*
X78862899Y-101101271D01*
X78729745Y-101012301D01*
X78616499Y-100899055D01*
X78527529Y-100765901D01*
X78466242Y-100617942D01*
X78435000Y-100460875D01*
X78435000Y-100300725D01*
X78466242Y-100143658D01*
X78527529Y-99995699D01*
X78616499Y-99862545D01*
X78729745Y-99749299D01*
X78862899Y-99660329D01*
X79010858Y-99599042D01*
X79167925Y-99567800D01*
X79328075Y-99567800D01*
X79485142Y-99599042D01*
X79485142Y-99599042D01*
G37*
G36*
X68817443Y-99308519D02*
G01*
X68883627Y-99315037D01*
X69053466Y-99366557D01*
X69209991Y-99450222D01*
X69245729Y-99479552D01*
X69347186Y-99562814D01*
X69427213Y-99660329D01*
X69459778Y-99700009D01*
X69543443Y-99856534D01*
X69594963Y-100026373D01*
X69612359Y-100203000D01*
X69594963Y-100379627D01*
X69543443Y-100549466D01*
X69459778Y-100705991D01*
X69454816Y-100712037D01*
X69347186Y-100843186D01*
X69251375Y-100921815D01*
X69209991Y-100955778D01*
X69209989Y-100955779D01*
X69104249Y-101012299D01*
X69053466Y-101039443D01*
X68883627Y-101090963D01*
X68817443Y-101097481D01*
X68751260Y-101104000D01*
X68662740Y-101104000D01*
X68596557Y-101097481D01*
X68530373Y-101090963D01*
X68360534Y-101039443D01*
X68309752Y-101012299D01*
X68204011Y-100955779D01*
X68204009Y-100955778D01*
X68162625Y-100921815D01*
X68066814Y-100843186D01*
X67959184Y-100712037D01*
X67954222Y-100705991D01*
X67870557Y-100549466D01*
X67819037Y-100379627D01*
X67801641Y-100203000D01*
X67819037Y-100026373D01*
X67870557Y-99856534D01*
X67954222Y-99700009D01*
X67986787Y-99660329D01*
X68066814Y-99562814D01*
X68168271Y-99479552D01*
X68204009Y-99450222D01*
X68360534Y-99366557D01*
X68530373Y-99315037D01*
X68596557Y-99308519D01*
X68662740Y-99302000D01*
X68751260Y-99302000D01*
X68817443Y-99308519D01*
X68817443Y-99308519D01*
G37*
G36*
X122086823Y-98221313D02*
G01*
X122247242Y-98269976D01*
X122309373Y-98303186D01*
X122395078Y-98348996D01*
X122524659Y-98455341D01*
X122631004Y-98584922D01*
X122631005Y-98584924D01*
X122710024Y-98732758D01*
X122758687Y-98893177D01*
X122775117Y-99060000D01*
X122758687Y-99226823D01*
X122758686Y-99226825D01*
X122716299Y-99366558D01*
X122710024Y-99387242D01*
X122676361Y-99450221D01*
X122631004Y-99535078D01*
X122524659Y-99664659D01*
X122395078Y-99771004D01*
X122395076Y-99771005D01*
X122247242Y-99850024D01*
X122086823Y-99898687D01*
X121961804Y-99911000D01*
X121878196Y-99911000D01*
X121753177Y-99898687D01*
X121592758Y-99850024D01*
X121444924Y-99771005D01*
X121444922Y-99771004D01*
X121315341Y-99664659D01*
X121208996Y-99535078D01*
X121163639Y-99450221D01*
X121129976Y-99387242D01*
X121123702Y-99366558D01*
X121081314Y-99226825D01*
X121081313Y-99226823D01*
X121064883Y-99060000D01*
X121081313Y-98893177D01*
X121129976Y-98732758D01*
X121208995Y-98584924D01*
X121208996Y-98584922D01*
X121315341Y-98455341D01*
X121444922Y-98348996D01*
X121530627Y-98303186D01*
X121592758Y-98269976D01*
X121753177Y-98221313D01*
X121878196Y-98209000D01*
X121961804Y-98209000D01*
X122086823Y-98221313D01*
X122086823Y-98221313D01*
G37*
G36*
X106846823Y-98221313D02*
G01*
X107007242Y-98269976D01*
X107069373Y-98303186D01*
X107155078Y-98348996D01*
X107284659Y-98455341D01*
X107391004Y-98584922D01*
X107391005Y-98584924D01*
X107470024Y-98732758D01*
X107518687Y-98893177D01*
X107535117Y-99060000D01*
X107518687Y-99226823D01*
X107518686Y-99226825D01*
X107476299Y-99366558D01*
X107470024Y-99387242D01*
X107436361Y-99450221D01*
X107391004Y-99535078D01*
X107284659Y-99664659D01*
X107155078Y-99771004D01*
X107155076Y-99771005D01*
X107007242Y-99850024D01*
X106846823Y-99898687D01*
X106721804Y-99911000D01*
X106638196Y-99911000D01*
X106513177Y-99898687D01*
X106352758Y-99850024D01*
X106204924Y-99771005D01*
X106204922Y-99771004D01*
X106075341Y-99664659D01*
X105968996Y-99535078D01*
X105923639Y-99450221D01*
X105889976Y-99387242D01*
X105883702Y-99366558D01*
X105841314Y-99226825D01*
X105841313Y-99226823D01*
X105824883Y-99060000D01*
X105841313Y-98893177D01*
X105889976Y-98732758D01*
X105968995Y-98584924D01*
X105968996Y-98584922D01*
X106075341Y-98455341D01*
X106204922Y-98348996D01*
X106290627Y-98303186D01*
X106352758Y-98269976D01*
X106513177Y-98221313D01*
X106638196Y-98209000D01*
X106721804Y-98209000D01*
X106846823Y-98221313D01*
X106846823Y-98221313D01*
G37*
G36*
X94725142Y-97059042D02*
G01*
X94873101Y-97120329D01*
X95006255Y-97209299D01*
X95119501Y-97322545D01*
X95208471Y-97455699D01*
X95269758Y-97603658D01*
X95301000Y-97760725D01*
X95301000Y-97920875D01*
X95269758Y-98077942D01*
X95208471Y-98225901D01*
X95119501Y-98359055D01*
X95006255Y-98472301D01*
X94873101Y-98561271D01*
X94725142Y-98622558D01*
X94568075Y-98653800D01*
X94407925Y-98653800D01*
X94250858Y-98622558D01*
X94102899Y-98561271D01*
X93969745Y-98472301D01*
X93856499Y-98359055D01*
X93767529Y-98225901D01*
X93706242Y-98077942D01*
X93675000Y-97920875D01*
X93675000Y-97760725D01*
X93706242Y-97603658D01*
X93767529Y-97455699D01*
X93856499Y-97322545D01*
X93969745Y-97209299D01*
X94102899Y-97120329D01*
X94250858Y-97059042D01*
X94407925Y-97027800D01*
X94568075Y-97027800D01*
X94725142Y-97059042D01*
X94725142Y-97059042D01*
G37*
G36*
X79485142Y-97059042D02*
G01*
X79633101Y-97120329D01*
X79766255Y-97209299D01*
X79879501Y-97322545D01*
X79968471Y-97455699D01*
X80029758Y-97603658D01*
X80061000Y-97760725D01*
X80061000Y-97920875D01*
X80029758Y-98077942D01*
X79968471Y-98225901D01*
X79879501Y-98359055D01*
X79766255Y-98472301D01*
X79633101Y-98561271D01*
X79485142Y-98622558D01*
X79328075Y-98653800D01*
X79167925Y-98653800D01*
X79010858Y-98622558D01*
X78862899Y-98561271D01*
X78729745Y-98472301D01*
X78616499Y-98359055D01*
X78527529Y-98225901D01*
X78466242Y-98077942D01*
X78435000Y-97920875D01*
X78435000Y-97760725D01*
X78466242Y-97603658D01*
X78527529Y-97455699D01*
X78616499Y-97322545D01*
X78729745Y-97209299D01*
X78862899Y-97120329D01*
X79010858Y-97059042D01*
X79167925Y-97027800D01*
X79328075Y-97027800D01*
X79485142Y-97059042D01*
X79485142Y-97059042D01*
G37*
G36*
X68817442Y-96768518D02*
G01*
X68883627Y-96775037D01*
X69053466Y-96826557D01*
X69209991Y-96910222D01*
X69245729Y-96939552D01*
X69347186Y-97022814D01*
X69427213Y-97120329D01*
X69459778Y-97160009D01*
X69543443Y-97316534D01*
X69594963Y-97486373D01*
X69612359Y-97663000D01*
X69594963Y-97839627D01*
X69543443Y-98009466D01*
X69459778Y-98165991D01*
X69430448Y-98201729D01*
X69347186Y-98303186D01*
X69245729Y-98386448D01*
X69209991Y-98415778D01*
X69209989Y-98415779D01*
X69104249Y-98472299D01*
X69053466Y-98499443D01*
X68883627Y-98550963D01*
X68817442Y-98557482D01*
X68751260Y-98564000D01*
X68662740Y-98564000D01*
X68596558Y-98557482D01*
X68530373Y-98550963D01*
X68360534Y-98499443D01*
X68309752Y-98472299D01*
X68204011Y-98415779D01*
X68204009Y-98415778D01*
X68168271Y-98386448D01*
X68066814Y-98303186D01*
X67983552Y-98201729D01*
X67954222Y-98165991D01*
X67870557Y-98009466D01*
X67819037Y-97839627D01*
X67801641Y-97663000D01*
X67819037Y-97486373D01*
X67870557Y-97316534D01*
X67954222Y-97160009D01*
X67986787Y-97120329D01*
X68066814Y-97022814D01*
X68168271Y-96939552D01*
X68204009Y-96910222D01*
X68360534Y-96826557D01*
X68530373Y-96775037D01*
X68596558Y-96768518D01*
X68662740Y-96762000D01*
X68751260Y-96762000D01*
X68817442Y-96768518D01*
X68817442Y-96768518D01*
G37*
G36*
X128536000Y-97421000D02*
G01*
X126734000Y-97421000D01*
X126734000Y-95619000D01*
X128536000Y-95619000D01*
X128536000Y-97421000D01*
X128536000Y-97421000D01*
G37*
G36*
X122086823Y-95681313D02*
G01*
X122247242Y-95729976D01*
X122379906Y-95800886D01*
X122395078Y-95808996D01*
X122524659Y-95915341D01*
X122631004Y-96044922D01*
X122631005Y-96044924D01*
X122710024Y-96192758D01*
X122758687Y-96353177D01*
X122775117Y-96520000D01*
X122758687Y-96686823D01*
X122758686Y-96686825D01*
X122716299Y-96826558D01*
X122710024Y-96847242D01*
X122676361Y-96910221D01*
X122631004Y-96995078D01*
X122524659Y-97124659D01*
X122395078Y-97231004D01*
X122395076Y-97231005D01*
X122247242Y-97310024D01*
X122086823Y-97358687D01*
X121961804Y-97371000D01*
X121878196Y-97371000D01*
X121753177Y-97358687D01*
X121592758Y-97310024D01*
X121444924Y-97231005D01*
X121444922Y-97231004D01*
X121315341Y-97124659D01*
X121208996Y-96995078D01*
X121163639Y-96910221D01*
X121129976Y-96847242D01*
X121123702Y-96826558D01*
X121081314Y-96686825D01*
X121081313Y-96686823D01*
X121064883Y-96520000D01*
X121081313Y-96353177D01*
X121129976Y-96192758D01*
X121208995Y-96044924D01*
X121208996Y-96044922D01*
X121315341Y-95915341D01*
X121444922Y-95808996D01*
X121460094Y-95800886D01*
X121592758Y-95729976D01*
X121753177Y-95681313D01*
X121878196Y-95669000D01*
X121961804Y-95669000D01*
X122086823Y-95681313D01*
X122086823Y-95681313D01*
G37*
G36*
X106846823Y-95681313D02*
G01*
X107007242Y-95729976D01*
X107139906Y-95800886D01*
X107155078Y-95808996D01*
X107284659Y-95915341D01*
X107391004Y-96044922D01*
X107391005Y-96044924D01*
X107470024Y-96192758D01*
X107518687Y-96353177D01*
X107535117Y-96520000D01*
X107518687Y-96686823D01*
X107518686Y-96686825D01*
X107476299Y-96826558D01*
X107470024Y-96847242D01*
X107436361Y-96910221D01*
X107391004Y-96995078D01*
X107284659Y-97124659D01*
X107155078Y-97231004D01*
X107155076Y-97231005D01*
X107007242Y-97310024D01*
X106846823Y-97358687D01*
X106721804Y-97371000D01*
X106638196Y-97371000D01*
X106513177Y-97358687D01*
X106352758Y-97310024D01*
X106204924Y-97231005D01*
X106204922Y-97231004D01*
X106075341Y-97124659D01*
X105968996Y-96995078D01*
X105923639Y-96910221D01*
X105889976Y-96847242D01*
X105883702Y-96826558D01*
X105841314Y-96686825D01*
X105841313Y-96686823D01*
X105824883Y-96520000D01*
X105841313Y-96353177D01*
X105889976Y-96192758D01*
X105968995Y-96044924D01*
X105968996Y-96044922D01*
X106075341Y-95915341D01*
X106204922Y-95808996D01*
X106220094Y-95800886D01*
X106352758Y-95729976D01*
X106513177Y-95681313D01*
X106638196Y-95669000D01*
X106721804Y-95669000D01*
X106846823Y-95681313D01*
X106846823Y-95681313D01*
G37*
G36*
X149970442Y-94355518D02*
G01*
X150036627Y-94362037D01*
X150206466Y-94413557D01*
X150362991Y-94497222D01*
X150389580Y-94519043D01*
X150500186Y-94609814D01*
X150580369Y-94707519D01*
X150612778Y-94747009D01*
X150696443Y-94903534D01*
X150747963Y-95073373D01*
X150765359Y-95250000D01*
X150747963Y-95426627D01*
X150696443Y-95596466D01*
X150612778Y-95752991D01*
X150583448Y-95788729D01*
X150500186Y-95890186D01*
X150398729Y-95973448D01*
X150362991Y-96002778D01*
X150206466Y-96086443D01*
X150036627Y-96137963D01*
X149970443Y-96144481D01*
X149904260Y-96151000D01*
X149815740Y-96151000D01*
X149749558Y-96144482D01*
X149683373Y-96137963D01*
X149513534Y-96086443D01*
X149357009Y-96002778D01*
X149321271Y-95973448D01*
X149219814Y-95890186D01*
X149136552Y-95788729D01*
X149107222Y-95752991D01*
X149023557Y-95596466D01*
X148972037Y-95426627D01*
X148954641Y-95250000D01*
X148972037Y-95073373D01*
X149023557Y-94903534D01*
X149107222Y-94747009D01*
X149139631Y-94707519D01*
X149219814Y-94609814D01*
X149330420Y-94519043D01*
X149357009Y-94497222D01*
X149513534Y-94413557D01*
X149683373Y-94362037D01*
X149749557Y-94355519D01*
X149815740Y-94349000D01*
X149904260Y-94349000D01*
X149970442Y-94355518D01*
X149970442Y-94355518D01*
G37*
G36*
X145681000Y-96151000D02*
G01*
X143879000Y-96151000D01*
X143879000Y-94349000D01*
X145681000Y-94349000D01*
X145681000Y-96151000D01*
X145681000Y-96151000D01*
G37*
G36*
X147430442Y-94355518D02*
G01*
X147496627Y-94362037D01*
X147666466Y-94413557D01*
X147822991Y-94497222D01*
X147849580Y-94519043D01*
X147960186Y-94609814D01*
X148040369Y-94707519D01*
X148072778Y-94747009D01*
X148156443Y-94903534D01*
X148207963Y-95073373D01*
X148225359Y-95250000D01*
X148207963Y-95426627D01*
X148156443Y-95596466D01*
X148072778Y-95752991D01*
X148043448Y-95788729D01*
X147960186Y-95890186D01*
X147858729Y-95973448D01*
X147822991Y-96002778D01*
X147666466Y-96086443D01*
X147496627Y-96137963D01*
X147430443Y-96144481D01*
X147364260Y-96151000D01*
X147275740Y-96151000D01*
X147209558Y-96144482D01*
X147143373Y-96137963D01*
X146973534Y-96086443D01*
X146817009Y-96002778D01*
X146781271Y-95973448D01*
X146679814Y-95890186D01*
X146596552Y-95788729D01*
X146567222Y-95752991D01*
X146483557Y-95596466D01*
X146432037Y-95426627D01*
X146414641Y-95250000D01*
X146432037Y-95073373D01*
X146483557Y-94903534D01*
X146567222Y-94747009D01*
X146599631Y-94707519D01*
X146679814Y-94609814D01*
X146790420Y-94519043D01*
X146817009Y-94497222D01*
X146973534Y-94413557D01*
X147143373Y-94362037D01*
X147209557Y-94355519D01*
X147275740Y-94349000D01*
X147364260Y-94349000D01*
X147430442Y-94355518D01*
X147430442Y-94355518D01*
G37*
G36*
X94725142Y-94519042D02*
G01*
X94873101Y-94580329D01*
X95006255Y-94669299D01*
X95119501Y-94782545D01*
X95208471Y-94915699D01*
X95269758Y-95063658D01*
X95301000Y-95220725D01*
X95301000Y-95380875D01*
X95269758Y-95537942D01*
X95208471Y-95685901D01*
X95119501Y-95819055D01*
X95006255Y-95932301D01*
X94873101Y-96021271D01*
X94725142Y-96082558D01*
X94568075Y-96113800D01*
X94407925Y-96113800D01*
X94250858Y-96082558D01*
X94102899Y-96021271D01*
X93969745Y-95932301D01*
X93856499Y-95819055D01*
X93767529Y-95685901D01*
X93706242Y-95537942D01*
X93675000Y-95380875D01*
X93675000Y-95220725D01*
X93706242Y-95063658D01*
X93767529Y-94915699D01*
X93856499Y-94782545D01*
X93969745Y-94669299D01*
X94102899Y-94580329D01*
X94250858Y-94519042D01*
X94407925Y-94487800D01*
X94568075Y-94487800D01*
X94725142Y-94519042D01*
X94725142Y-94519042D01*
G37*
G36*
X79485142Y-94519042D02*
G01*
X79633101Y-94580329D01*
X79766255Y-94669299D01*
X79879501Y-94782545D01*
X79968471Y-94915699D01*
X80029758Y-95063658D01*
X80061000Y-95220725D01*
X80061000Y-95380875D01*
X80029758Y-95537942D01*
X79968471Y-95685901D01*
X79879501Y-95819055D01*
X79766255Y-95932301D01*
X79633101Y-96021271D01*
X79485142Y-96082558D01*
X79328075Y-96113800D01*
X79167925Y-96113800D01*
X79010858Y-96082558D01*
X78862899Y-96021271D01*
X78729745Y-95932301D01*
X78616499Y-95819055D01*
X78527529Y-95685901D01*
X78466242Y-95537942D01*
X78435000Y-95380875D01*
X78435000Y-95220725D01*
X78466242Y-95063658D01*
X78527529Y-94915699D01*
X78616499Y-94782545D01*
X78729745Y-94669299D01*
X78862899Y-94580329D01*
X79010858Y-94519042D01*
X79167925Y-94487800D01*
X79328075Y-94487800D01*
X79485142Y-94519042D01*
X79485142Y-94519042D01*
G37*
G36*
X153918228Y-94431703D02*
G01*
X154073100Y-94495853D01*
X154212481Y-94588985D01*
X154331015Y-94707519D01*
X154424147Y-94846900D01*
X154488297Y-95001772D01*
X154521000Y-95166184D01*
X154521000Y-95333816D01*
X154488297Y-95498228D01*
X154424147Y-95653100D01*
X154331015Y-95792481D01*
X154212481Y-95911015D01*
X154073100Y-96004147D01*
X153918228Y-96068297D01*
X153753816Y-96101000D01*
X153586184Y-96101000D01*
X153421772Y-96068297D01*
X153266900Y-96004147D01*
X153127519Y-95911015D01*
X153008985Y-95792481D01*
X152915853Y-95653100D01*
X152851703Y-95498228D01*
X152819000Y-95333816D01*
X152819000Y-95166184D01*
X152851703Y-95001772D01*
X152915853Y-94846900D01*
X153008985Y-94707519D01*
X153127519Y-94588985D01*
X153266900Y-94495853D01*
X153421772Y-94431703D01*
X153586184Y-94399000D01*
X153753816Y-94399000D01*
X153918228Y-94431703D01*
X153918228Y-94431703D01*
G37*
G36*
X69608000Y-96024000D02*
G01*
X67806000Y-96024000D01*
X67806000Y-94222000D01*
X69608000Y-94222000D01*
X69608000Y-96024000D01*
X69608000Y-96024000D01*
G37*
G36*
X101739000Y-94881000D02*
G01*
X99937000Y-94881000D01*
X99937000Y-93079000D01*
X101739000Y-93079000D01*
X101739000Y-94881000D01*
X101739000Y-94881000D01*
G37*
G36*
X127745443Y-93085519D02*
G01*
X127811627Y-93092037D01*
X127981466Y-93143557D01*
X127981468Y-93143558D01*
X127985851Y-93145901D01*
X128137991Y-93227222D01*
X128173729Y-93256552D01*
X128275186Y-93339814D01*
X128358448Y-93441271D01*
X128387778Y-93477009D01*
X128471443Y-93633534D01*
X128522963Y-93803373D01*
X128540359Y-93980000D01*
X128522963Y-94156627D01*
X128471443Y-94326466D01*
X128387778Y-94482991D01*
X128358448Y-94518729D01*
X128275186Y-94620186D01*
X128173729Y-94703448D01*
X128137991Y-94732778D01*
X127981466Y-94816443D01*
X127811627Y-94867963D01*
X127745443Y-94874481D01*
X127679260Y-94881000D01*
X127590740Y-94881000D01*
X127524557Y-94874481D01*
X127458373Y-94867963D01*
X127288534Y-94816443D01*
X127132009Y-94732778D01*
X127096271Y-94703448D01*
X126994814Y-94620186D01*
X126911552Y-94518729D01*
X126882222Y-94482991D01*
X126798557Y-94326466D01*
X126747037Y-94156627D01*
X126729641Y-93980000D01*
X126747037Y-93803373D01*
X126798557Y-93633534D01*
X126882222Y-93477009D01*
X126911552Y-93441271D01*
X126994814Y-93339814D01*
X127096271Y-93256552D01*
X127132009Y-93227222D01*
X127284149Y-93145901D01*
X127288532Y-93143558D01*
X127288534Y-93143557D01*
X127458373Y-93092037D01*
X127524557Y-93085519D01*
X127590740Y-93079000D01*
X127679260Y-93079000D01*
X127745443Y-93085519D01*
X127745443Y-93085519D01*
G37*
G36*
X106846823Y-93141313D02*
G01*
X107007242Y-93189976D01*
X107076922Y-93227221D01*
X107155078Y-93268996D01*
X107284659Y-93375341D01*
X107391004Y-93504922D01*
X107391005Y-93504924D01*
X107470024Y-93652758D01*
X107518687Y-93813177D01*
X107535117Y-93980000D01*
X107518687Y-94146823D01*
X107470024Y-94307242D01*
X107440735Y-94362037D01*
X107391004Y-94455078D01*
X107284659Y-94584659D01*
X107155078Y-94691004D01*
X107155076Y-94691005D01*
X107007242Y-94770024D01*
X106846823Y-94818687D01*
X106721804Y-94831000D01*
X106638196Y-94831000D01*
X106513177Y-94818687D01*
X106352758Y-94770024D01*
X106204924Y-94691005D01*
X106204922Y-94691004D01*
X106075341Y-94584659D01*
X105968996Y-94455078D01*
X105919265Y-94362037D01*
X105889976Y-94307242D01*
X105841313Y-94146823D01*
X105824883Y-93980000D01*
X105841313Y-93813177D01*
X105889976Y-93652758D01*
X105968995Y-93504924D01*
X105968996Y-93504922D01*
X106075341Y-93375341D01*
X106204922Y-93268996D01*
X106283078Y-93227221D01*
X106352758Y-93189976D01*
X106513177Y-93141313D01*
X106638196Y-93129000D01*
X106721804Y-93129000D01*
X106846823Y-93141313D01*
X106846823Y-93141313D01*
G37*
G36*
X122086823Y-93141313D02*
G01*
X122247242Y-93189976D01*
X122316922Y-93227221D01*
X122395078Y-93268996D01*
X122524659Y-93375341D01*
X122631004Y-93504922D01*
X122631005Y-93504924D01*
X122710024Y-93652758D01*
X122758687Y-93813177D01*
X122775117Y-93980000D01*
X122758687Y-94146823D01*
X122710024Y-94307242D01*
X122680735Y-94362037D01*
X122631004Y-94455078D01*
X122524659Y-94584659D01*
X122395078Y-94691004D01*
X122395076Y-94691005D01*
X122247242Y-94770024D01*
X122086823Y-94818687D01*
X121961804Y-94831000D01*
X121878196Y-94831000D01*
X121753177Y-94818687D01*
X121592758Y-94770024D01*
X121444924Y-94691005D01*
X121444922Y-94691004D01*
X121315341Y-94584659D01*
X121208996Y-94455078D01*
X121159265Y-94362037D01*
X121129976Y-94307242D01*
X121081313Y-94146823D01*
X121064883Y-93980000D01*
X121081313Y-93813177D01*
X121129976Y-93652758D01*
X121208995Y-93504924D01*
X121208996Y-93504922D01*
X121315341Y-93375341D01*
X121444922Y-93268996D01*
X121523078Y-93227221D01*
X121592758Y-93189976D01*
X121753177Y-93141313D01*
X121878196Y-93129000D01*
X121961804Y-93129000D01*
X122086823Y-93141313D01*
X122086823Y-93141313D01*
G37*
G36*
X94725142Y-91979042D02*
G01*
X94873101Y-92040329D01*
X95006255Y-92129299D01*
X95119501Y-92242545D01*
X95208471Y-92375699D01*
X95269758Y-92523658D01*
X95301000Y-92680725D01*
X95301000Y-92840875D01*
X95269758Y-92997942D01*
X95208471Y-93145901D01*
X95119501Y-93279055D01*
X95006255Y-93392301D01*
X94873101Y-93481271D01*
X94725142Y-93542558D01*
X94568075Y-93573800D01*
X94407925Y-93573800D01*
X94250858Y-93542558D01*
X94102899Y-93481271D01*
X93969745Y-93392301D01*
X93856499Y-93279055D01*
X93767529Y-93145901D01*
X93706242Y-92997942D01*
X93675000Y-92840875D01*
X93675000Y-92680725D01*
X93706242Y-92523658D01*
X93767529Y-92375699D01*
X93856499Y-92242545D01*
X93969745Y-92129299D01*
X94102899Y-92040329D01*
X94250858Y-91979042D01*
X94407925Y-91947800D01*
X94568075Y-91947800D01*
X94725142Y-91979042D01*
X94725142Y-91979042D01*
G37*
G36*
X79485142Y-91979042D02*
G01*
X79633101Y-92040329D01*
X79766255Y-92129299D01*
X79879501Y-92242545D01*
X79968471Y-92375699D01*
X80029758Y-92523658D01*
X80061000Y-92680725D01*
X80061000Y-92840875D01*
X80029758Y-92997942D01*
X79968471Y-93145901D01*
X79879501Y-93279055D01*
X79766255Y-93392301D01*
X79633101Y-93481271D01*
X79485142Y-93542558D01*
X79328075Y-93573800D01*
X79167925Y-93573800D01*
X79010858Y-93542558D01*
X78862899Y-93481271D01*
X78729745Y-93392301D01*
X78616499Y-93279055D01*
X78527529Y-93145901D01*
X78466242Y-92997942D01*
X78435000Y-92840875D01*
X78435000Y-92680725D01*
X78466242Y-92523658D01*
X78527529Y-92375699D01*
X78616499Y-92242545D01*
X78729745Y-92129299D01*
X78862899Y-92040329D01*
X79010858Y-91979042D01*
X79167925Y-91947800D01*
X79328075Y-91947800D01*
X79485142Y-91979042D01*
X79485142Y-91979042D01*
G37*
G36*
X127745443Y-90545519D02*
G01*
X127811627Y-90552037D01*
X127981466Y-90603557D01*
X127981468Y-90603558D01*
X127985851Y-90605901D01*
X128137991Y-90687222D01*
X128173729Y-90716552D01*
X128275186Y-90799814D01*
X128358448Y-90901271D01*
X128387778Y-90937009D01*
X128471443Y-91093534D01*
X128522963Y-91263373D01*
X128540359Y-91440000D01*
X128522963Y-91616627D01*
X128471443Y-91786466D01*
X128387778Y-91942991D01*
X128383831Y-91947800D01*
X128275186Y-92080186D01*
X128173729Y-92163448D01*
X128137991Y-92192778D01*
X127981466Y-92276443D01*
X127811627Y-92327963D01*
X127745443Y-92334481D01*
X127679260Y-92341000D01*
X127590740Y-92341000D01*
X127524557Y-92334481D01*
X127458373Y-92327963D01*
X127288534Y-92276443D01*
X127132009Y-92192778D01*
X127096271Y-92163448D01*
X126994814Y-92080186D01*
X126886169Y-91947800D01*
X126882222Y-91942991D01*
X126798557Y-91786466D01*
X126747037Y-91616627D01*
X126729641Y-91440000D01*
X126747037Y-91263373D01*
X126798557Y-91093534D01*
X126882222Y-90937009D01*
X126911552Y-90901271D01*
X126994814Y-90799814D01*
X127096271Y-90716552D01*
X127132009Y-90687222D01*
X127284149Y-90605901D01*
X127288532Y-90603558D01*
X127288534Y-90603557D01*
X127458373Y-90552037D01*
X127524557Y-90545519D01*
X127590740Y-90539000D01*
X127679260Y-90539000D01*
X127745443Y-90545519D01*
X127745443Y-90545519D01*
G37*
G36*
X100948443Y-90545519D02*
G01*
X101014627Y-90552037D01*
X101184466Y-90603557D01*
X101184468Y-90603558D01*
X101188851Y-90605901D01*
X101340991Y-90687222D01*
X101376729Y-90716552D01*
X101478186Y-90799814D01*
X101561448Y-90901271D01*
X101590778Y-90937009D01*
X101674443Y-91093534D01*
X101725963Y-91263373D01*
X101743359Y-91440000D01*
X101725963Y-91616627D01*
X101674443Y-91786466D01*
X101590778Y-91942991D01*
X101586831Y-91947800D01*
X101478186Y-92080186D01*
X101376729Y-92163448D01*
X101340991Y-92192778D01*
X101184466Y-92276443D01*
X101014627Y-92327963D01*
X100948443Y-92334481D01*
X100882260Y-92341000D01*
X100793740Y-92341000D01*
X100727557Y-92334481D01*
X100661373Y-92327963D01*
X100491534Y-92276443D01*
X100335009Y-92192778D01*
X100299271Y-92163448D01*
X100197814Y-92080186D01*
X100089169Y-91947800D01*
X100085222Y-91942991D01*
X100001557Y-91786466D01*
X99950037Y-91616627D01*
X99932641Y-91440000D01*
X99950037Y-91263373D01*
X100001557Y-91093534D01*
X100085222Y-90937009D01*
X100114552Y-90901271D01*
X100197814Y-90799814D01*
X100299271Y-90716552D01*
X100335009Y-90687222D01*
X100487149Y-90605901D01*
X100491532Y-90603558D01*
X100491534Y-90603557D01*
X100661373Y-90552037D01*
X100727557Y-90545519D01*
X100793740Y-90539000D01*
X100882260Y-90539000D01*
X100948443Y-90545519D01*
X100948443Y-90545519D01*
G37*
G36*
X106846823Y-90601313D02*
G01*
X107007242Y-90649976D01*
X107076922Y-90687221D01*
X107155078Y-90728996D01*
X107284659Y-90835341D01*
X107391004Y-90964922D01*
X107391005Y-90964924D01*
X107470024Y-91112758D01*
X107518687Y-91273177D01*
X107535117Y-91440000D01*
X107518687Y-91606823D01*
X107470024Y-91767242D01*
X107459747Y-91786468D01*
X107391004Y-91915078D01*
X107284659Y-92044659D01*
X107155078Y-92151004D01*
X107155076Y-92151005D01*
X107007242Y-92230024D01*
X106846823Y-92278687D01*
X106721804Y-92291000D01*
X106638196Y-92291000D01*
X106513177Y-92278687D01*
X106352758Y-92230024D01*
X106204924Y-92151005D01*
X106204922Y-92151004D01*
X106075341Y-92044659D01*
X105968996Y-91915078D01*
X105900253Y-91786468D01*
X105889976Y-91767242D01*
X105841313Y-91606823D01*
X105824883Y-91440000D01*
X105841313Y-91273177D01*
X105889976Y-91112758D01*
X105968995Y-90964924D01*
X105968996Y-90964922D01*
X106075341Y-90835341D01*
X106204922Y-90728996D01*
X106283078Y-90687221D01*
X106352758Y-90649976D01*
X106513177Y-90601313D01*
X106638196Y-90589000D01*
X106721804Y-90589000D01*
X106846823Y-90601313D01*
X106846823Y-90601313D01*
G37*
G36*
X122086823Y-90601313D02*
G01*
X122247242Y-90649976D01*
X122316922Y-90687221D01*
X122395078Y-90728996D01*
X122524659Y-90835341D01*
X122631004Y-90964922D01*
X122631005Y-90964924D01*
X122710024Y-91112758D01*
X122758687Y-91273177D01*
X122775117Y-91440000D01*
X122758687Y-91606823D01*
X122710024Y-91767242D01*
X122699747Y-91786468D01*
X122631004Y-91915078D01*
X122524659Y-92044659D01*
X122395078Y-92151004D01*
X122395076Y-92151005D01*
X122247242Y-92230024D01*
X122086823Y-92278687D01*
X121961804Y-92291000D01*
X121878196Y-92291000D01*
X121753177Y-92278687D01*
X121592758Y-92230024D01*
X121444924Y-92151005D01*
X121444922Y-92151004D01*
X121315341Y-92044659D01*
X121208996Y-91915078D01*
X121140253Y-91786468D01*
X121129976Y-91767242D01*
X121081313Y-91606823D01*
X121064883Y-91440000D01*
X121081313Y-91273177D01*
X121129976Y-91112758D01*
X121208995Y-90964924D01*
X121208996Y-90964922D01*
X121315341Y-90835341D01*
X121444922Y-90728996D01*
X121523078Y-90687221D01*
X121592758Y-90649976D01*
X121753177Y-90601313D01*
X121878196Y-90589000D01*
X121961804Y-90589000D01*
X122086823Y-90601313D01*
X122086823Y-90601313D01*
G37*
G36*
X79485142Y-89439042D02*
G01*
X79633101Y-89500329D01*
X79766255Y-89589299D01*
X79879501Y-89702545D01*
X79968471Y-89835699D01*
X80029758Y-89983658D01*
X80061000Y-90140725D01*
X80061000Y-90300875D01*
X80029758Y-90457942D01*
X79968471Y-90605901D01*
X79879501Y-90739055D01*
X79766255Y-90852301D01*
X79633101Y-90941271D01*
X79485142Y-91002558D01*
X79328075Y-91033800D01*
X79167925Y-91033800D01*
X79010858Y-91002558D01*
X78862899Y-90941271D01*
X78729745Y-90852301D01*
X78616499Y-90739055D01*
X78527529Y-90605901D01*
X78466242Y-90457942D01*
X78435000Y-90300875D01*
X78435000Y-90140725D01*
X78466242Y-89983658D01*
X78527529Y-89835699D01*
X78616499Y-89702545D01*
X78729745Y-89589299D01*
X78862899Y-89500329D01*
X79010858Y-89439042D01*
X79167925Y-89407800D01*
X79328075Y-89407800D01*
X79485142Y-89439042D01*
X79485142Y-89439042D01*
G37*
G36*
X94725142Y-89439042D02*
G01*
X94873101Y-89500329D01*
X95006255Y-89589299D01*
X95119501Y-89702545D01*
X95208471Y-89835699D01*
X95269758Y-89983658D01*
X95301000Y-90140725D01*
X95301000Y-90300875D01*
X95269758Y-90457942D01*
X95208471Y-90605901D01*
X95119501Y-90739055D01*
X95006255Y-90852301D01*
X94873101Y-90941271D01*
X94725142Y-91002558D01*
X94568075Y-91033800D01*
X94407925Y-91033800D01*
X94250858Y-91002558D01*
X94102899Y-90941271D01*
X93969745Y-90852301D01*
X93856499Y-90739055D01*
X93767529Y-90605901D01*
X93706242Y-90457942D01*
X93675000Y-90300875D01*
X93675000Y-90140725D01*
X93706242Y-89983658D01*
X93767529Y-89835699D01*
X93856499Y-89702545D01*
X93969745Y-89589299D01*
X94102899Y-89500329D01*
X94250858Y-89439042D01*
X94407925Y-89407800D01*
X94568075Y-89407800D01*
X94725142Y-89439042D01*
X94725142Y-89439042D01*
G37*
G36*
X153836823Y-89331313D02*
G01*
X153997242Y-89379976D01*
X154107748Y-89439043D01*
X154145078Y-89458996D01*
X154274659Y-89565341D01*
X154381004Y-89694922D01*
X154381005Y-89694924D01*
X154460024Y-89842758D01*
X154508687Y-90003177D01*
X154525117Y-90170000D01*
X154508687Y-90336823D01*
X154460024Y-90497242D01*
X154430735Y-90552037D01*
X154381004Y-90645078D01*
X154274659Y-90774659D01*
X154145078Y-90881004D01*
X154145076Y-90881005D01*
X153997242Y-90960024D01*
X153836823Y-91008687D01*
X153711804Y-91021000D01*
X153628196Y-91021000D01*
X153503177Y-91008687D01*
X153342758Y-90960024D01*
X153194924Y-90881005D01*
X153194922Y-90881004D01*
X153065341Y-90774659D01*
X152958996Y-90645078D01*
X152909265Y-90552037D01*
X152879976Y-90497242D01*
X152831313Y-90336823D01*
X152814883Y-90170000D01*
X152831313Y-90003177D01*
X152879976Y-89842758D01*
X152958995Y-89694924D01*
X152958996Y-89694922D01*
X153065341Y-89565341D01*
X153194922Y-89458996D01*
X153232252Y-89439043D01*
X153342758Y-89379976D01*
X153503177Y-89331313D01*
X153628196Y-89319000D01*
X153711804Y-89319000D01*
X153836823Y-89331313D01*
X153836823Y-89331313D01*
G37*
G36*
X100948443Y-88005519D02*
G01*
X101014627Y-88012037D01*
X101184466Y-88063557D01*
X101184468Y-88063558D01*
X101262728Y-88105389D01*
X101340991Y-88147222D01*
X101376729Y-88176552D01*
X101478186Y-88259814D01*
X101537409Y-88331979D01*
X101590778Y-88397009D01*
X101674443Y-88553534D01*
X101725963Y-88723373D01*
X101743359Y-88900000D01*
X101725963Y-89076627D01*
X101674443Y-89246466D01*
X101590778Y-89402991D01*
X101586831Y-89407800D01*
X101478186Y-89540186D01*
X101376729Y-89623448D01*
X101340991Y-89652778D01*
X101184466Y-89736443D01*
X101014627Y-89787963D01*
X100948443Y-89794481D01*
X100882260Y-89801000D01*
X100793740Y-89801000D01*
X100727557Y-89794481D01*
X100661373Y-89787963D01*
X100491534Y-89736443D01*
X100335009Y-89652778D01*
X100299271Y-89623448D01*
X100197814Y-89540186D01*
X100089169Y-89407800D01*
X100085222Y-89402991D01*
X100001557Y-89246466D01*
X99950037Y-89076627D01*
X99932641Y-88900000D01*
X99950037Y-88723373D01*
X100001557Y-88553534D01*
X100085222Y-88397009D01*
X100138591Y-88331979D01*
X100197814Y-88259814D01*
X100299271Y-88176552D01*
X100335009Y-88147222D01*
X100413272Y-88105389D01*
X100491532Y-88063558D01*
X100491534Y-88063557D01*
X100661373Y-88012037D01*
X100727557Y-88005519D01*
X100793740Y-87999000D01*
X100882260Y-87999000D01*
X100948443Y-88005519D01*
X100948443Y-88005519D01*
G37*
G36*
X127745443Y-88005519D02*
G01*
X127811627Y-88012037D01*
X127981466Y-88063557D01*
X127981468Y-88063558D01*
X128059728Y-88105389D01*
X128137991Y-88147222D01*
X128173729Y-88176552D01*
X128275186Y-88259814D01*
X128334409Y-88331979D01*
X128387778Y-88397009D01*
X128471443Y-88553534D01*
X128522963Y-88723373D01*
X128540359Y-88900000D01*
X128522963Y-89076627D01*
X128471443Y-89246466D01*
X128387778Y-89402991D01*
X128383831Y-89407800D01*
X128275186Y-89540186D01*
X128173729Y-89623448D01*
X128137991Y-89652778D01*
X127981466Y-89736443D01*
X127811627Y-89787963D01*
X127745443Y-89794481D01*
X127679260Y-89801000D01*
X127590740Y-89801000D01*
X127524557Y-89794481D01*
X127458373Y-89787963D01*
X127288534Y-89736443D01*
X127132009Y-89652778D01*
X127096271Y-89623448D01*
X126994814Y-89540186D01*
X126886169Y-89407800D01*
X126882222Y-89402991D01*
X126798557Y-89246466D01*
X126747037Y-89076627D01*
X126729641Y-88900000D01*
X126747037Y-88723373D01*
X126798557Y-88553534D01*
X126882222Y-88397009D01*
X126935591Y-88331979D01*
X126994814Y-88259814D01*
X127096271Y-88176552D01*
X127132009Y-88147222D01*
X127210272Y-88105389D01*
X127288532Y-88063558D01*
X127288534Y-88063557D01*
X127458373Y-88012037D01*
X127524557Y-88005519D01*
X127590740Y-87999000D01*
X127679260Y-87999000D01*
X127745443Y-88005519D01*
X127745443Y-88005519D01*
G37*
G36*
X106846823Y-88061313D02*
G01*
X107007242Y-88109976D01*
X107076922Y-88147221D01*
X107155078Y-88188996D01*
X107284659Y-88295341D01*
X107391004Y-88424922D01*
X107391005Y-88424924D01*
X107470024Y-88572758D01*
X107518687Y-88733177D01*
X107535117Y-88900000D01*
X107518687Y-89066823D01*
X107470024Y-89227242D01*
X107459747Y-89246468D01*
X107391004Y-89375078D01*
X107284659Y-89504659D01*
X107155078Y-89611004D01*
X107155076Y-89611005D01*
X107007242Y-89690024D01*
X106846823Y-89738687D01*
X106721804Y-89751000D01*
X106638196Y-89751000D01*
X106513177Y-89738687D01*
X106352758Y-89690024D01*
X106204924Y-89611005D01*
X106204922Y-89611004D01*
X106075341Y-89504659D01*
X105968996Y-89375078D01*
X105900253Y-89246468D01*
X105889976Y-89227242D01*
X105841313Y-89066823D01*
X105824883Y-88900000D01*
X105841313Y-88733177D01*
X105889976Y-88572758D01*
X105968995Y-88424924D01*
X105968996Y-88424922D01*
X106075341Y-88295341D01*
X106204922Y-88188996D01*
X106283078Y-88147221D01*
X106352758Y-88109976D01*
X106513177Y-88061313D01*
X106638196Y-88049000D01*
X106721804Y-88049000D01*
X106846823Y-88061313D01*
X106846823Y-88061313D01*
G37*
G36*
X122086823Y-88061313D02*
G01*
X122247242Y-88109976D01*
X122316922Y-88147221D01*
X122395078Y-88188996D01*
X122524659Y-88295341D01*
X122631004Y-88424922D01*
X122631005Y-88424924D01*
X122710024Y-88572758D01*
X122758687Y-88733177D01*
X122775117Y-88900000D01*
X122758687Y-89066823D01*
X122710024Y-89227242D01*
X122699747Y-89246468D01*
X122631004Y-89375078D01*
X122524659Y-89504659D01*
X122395078Y-89611004D01*
X122395076Y-89611005D01*
X122247242Y-89690024D01*
X122086823Y-89738687D01*
X121961804Y-89751000D01*
X121878196Y-89751000D01*
X121753177Y-89738687D01*
X121592758Y-89690024D01*
X121444924Y-89611005D01*
X121444922Y-89611004D01*
X121315341Y-89504659D01*
X121208996Y-89375078D01*
X121140253Y-89246468D01*
X121129976Y-89227242D01*
X121081313Y-89066823D01*
X121064883Y-88900000D01*
X121081313Y-88733177D01*
X121129976Y-88572758D01*
X121208995Y-88424924D01*
X121208996Y-88424922D01*
X121315341Y-88295341D01*
X121444922Y-88188996D01*
X121523078Y-88147221D01*
X121592758Y-88109976D01*
X121753177Y-88061313D01*
X121878196Y-88049000D01*
X121961804Y-88049000D01*
X122086823Y-88061313D01*
X122086823Y-88061313D01*
G37*
G36*
X147713000Y-88785000D02*
G01*
X145911000Y-88785000D01*
X145911000Y-86983000D01*
X147713000Y-86983000D01*
X147713000Y-88785000D01*
X147713000Y-88785000D01*
G37*
G36*
X144382443Y-86989519D02*
G01*
X144448627Y-86996037D01*
X144618466Y-87047557D01*
X144774991Y-87131222D01*
X144797901Y-87150024D01*
X144912186Y-87243814D01*
X144995448Y-87345271D01*
X145024778Y-87381009D01*
X145108443Y-87537534D01*
X145159963Y-87707373D01*
X145177359Y-87884000D01*
X145159963Y-88060627D01*
X145108443Y-88230466D01*
X145024778Y-88386991D01*
X145001264Y-88415643D01*
X144912186Y-88524186D01*
X144810729Y-88607448D01*
X144774991Y-88636778D01*
X144618466Y-88720443D01*
X144448627Y-88771963D01*
X144382442Y-88778482D01*
X144316260Y-88785000D01*
X144227740Y-88785000D01*
X144161558Y-88778482D01*
X144095373Y-88771963D01*
X143925534Y-88720443D01*
X143769009Y-88636778D01*
X143733271Y-88607448D01*
X143631814Y-88524186D01*
X143542736Y-88415643D01*
X143519222Y-88386991D01*
X143435557Y-88230466D01*
X143384037Y-88060627D01*
X143366641Y-87884000D01*
X143384037Y-87707373D01*
X143435557Y-87537534D01*
X143519222Y-87381009D01*
X143548552Y-87345271D01*
X143631814Y-87243814D01*
X143746099Y-87150024D01*
X143769009Y-87131222D01*
X143925534Y-87047557D01*
X144095373Y-86996037D01*
X144161557Y-86989519D01*
X144227740Y-86983000D01*
X144316260Y-86983000D01*
X144382443Y-86989519D01*
X144382443Y-86989519D01*
G37*
G36*
X79485142Y-86899042D02*
G01*
X79633101Y-86960329D01*
X79766255Y-87049299D01*
X79879501Y-87162545D01*
X79968471Y-87295699D01*
X80029758Y-87443658D01*
X80061000Y-87600725D01*
X80061000Y-87760875D01*
X80029758Y-87917942D01*
X79968471Y-88065901D01*
X79879501Y-88199055D01*
X79766255Y-88312301D01*
X79633101Y-88401271D01*
X79485142Y-88462558D01*
X79328075Y-88493800D01*
X79167925Y-88493800D01*
X79010858Y-88462558D01*
X78862899Y-88401271D01*
X78729745Y-88312301D01*
X78616499Y-88199055D01*
X78527529Y-88065901D01*
X78466242Y-87917942D01*
X78435000Y-87760875D01*
X78435000Y-87600725D01*
X78466242Y-87443658D01*
X78527529Y-87295699D01*
X78616499Y-87162545D01*
X78729745Y-87049299D01*
X78862899Y-86960329D01*
X79010858Y-86899042D01*
X79167925Y-86867800D01*
X79328075Y-86867800D01*
X79485142Y-86899042D01*
X79485142Y-86899042D01*
G37*
G36*
X94725142Y-86899042D02*
G01*
X94873101Y-86960329D01*
X95006255Y-87049299D01*
X95119501Y-87162545D01*
X95208471Y-87295699D01*
X95269758Y-87443658D01*
X95301000Y-87600725D01*
X95301000Y-87760875D01*
X95269758Y-87917942D01*
X95208471Y-88065901D01*
X95119501Y-88199055D01*
X95006255Y-88312301D01*
X94873101Y-88401271D01*
X94725142Y-88462558D01*
X94568075Y-88493800D01*
X94407925Y-88493800D01*
X94250858Y-88462558D01*
X94102899Y-88401271D01*
X93969745Y-88312301D01*
X93856499Y-88199055D01*
X93767529Y-88065901D01*
X93706242Y-87917942D01*
X93675000Y-87760875D01*
X93675000Y-87600725D01*
X93706242Y-87443658D01*
X93767529Y-87295699D01*
X93856499Y-87162545D01*
X93969745Y-87049299D01*
X94102899Y-86960329D01*
X94250858Y-86899042D01*
X94407925Y-86867800D01*
X94568075Y-86867800D01*
X94725142Y-86899042D01*
X94725142Y-86899042D01*
G37*
G36*
X68792043Y-86684719D02*
G01*
X68858227Y-86691237D01*
X69028066Y-86742757D01*
X69184591Y-86826422D01*
X69195138Y-86835078D01*
X69321786Y-86939014D01*
X69405048Y-87040471D01*
X69434378Y-87076209D01*
X69518043Y-87232734D01*
X69569563Y-87402573D01*
X69586959Y-87579200D01*
X69569563Y-87755827D01*
X69518043Y-87925666D01*
X69434378Y-88082191D01*
X69411576Y-88109975D01*
X69321786Y-88219386D01*
X69229233Y-88295341D01*
X69184591Y-88331978D01*
X69184589Y-88331979D01*
X69062928Y-88397009D01*
X69028066Y-88415643D01*
X68858227Y-88467163D01*
X68792042Y-88473682D01*
X68725860Y-88480200D01*
X68637340Y-88480200D01*
X68571158Y-88473682D01*
X68504973Y-88467163D01*
X68335134Y-88415643D01*
X68300273Y-88397009D01*
X68178611Y-88331979D01*
X68178609Y-88331978D01*
X68133967Y-88295341D01*
X68041414Y-88219386D01*
X67951624Y-88109975D01*
X67928822Y-88082191D01*
X67845157Y-87925666D01*
X67793637Y-87755827D01*
X67776241Y-87579200D01*
X67793637Y-87402573D01*
X67845157Y-87232734D01*
X67928822Y-87076209D01*
X67958152Y-87040471D01*
X68041414Y-86939014D01*
X68168062Y-86835078D01*
X68178609Y-86826422D01*
X68335134Y-86742757D01*
X68504973Y-86691237D01*
X68571157Y-86684719D01*
X68637340Y-86678200D01*
X68725860Y-86678200D01*
X68792043Y-86684719D01*
X68792043Y-86684719D01*
G37*
G36*
X100948442Y-85465518D02*
G01*
X101014627Y-85472037D01*
X101184466Y-85523557D01*
X101184468Y-85523558D01*
X101262728Y-85565389D01*
X101340991Y-85607222D01*
X101376729Y-85636552D01*
X101478186Y-85719814D01*
X101537409Y-85791979D01*
X101590778Y-85857009D01*
X101674443Y-86013534D01*
X101725963Y-86183373D01*
X101743359Y-86360000D01*
X101725963Y-86536627D01*
X101674443Y-86706466D01*
X101590778Y-86862991D01*
X101586831Y-86867800D01*
X101478186Y-87000186D01*
X101385550Y-87076209D01*
X101340991Y-87112778D01*
X101184466Y-87196443D01*
X101014627Y-87247963D01*
X100948442Y-87254482D01*
X100882260Y-87261000D01*
X100793740Y-87261000D01*
X100727558Y-87254482D01*
X100661373Y-87247963D01*
X100491534Y-87196443D01*
X100335009Y-87112778D01*
X100290450Y-87076209D01*
X100197814Y-87000186D01*
X100089169Y-86867800D01*
X100085222Y-86862991D01*
X100001557Y-86706466D01*
X99950037Y-86536627D01*
X99932641Y-86360000D01*
X99950037Y-86183373D01*
X100001557Y-86013534D01*
X100085222Y-85857009D01*
X100138591Y-85791979D01*
X100197814Y-85719814D01*
X100299271Y-85636552D01*
X100335009Y-85607222D01*
X100413272Y-85565389D01*
X100491532Y-85523558D01*
X100491534Y-85523557D01*
X100661373Y-85472037D01*
X100727558Y-85465518D01*
X100793740Y-85459000D01*
X100882260Y-85459000D01*
X100948442Y-85465518D01*
X100948442Y-85465518D01*
G37*
G36*
X122086823Y-85521313D02*
G01*
X122247242Y-85569976D01*
X122316922Y-85607221D01*
X122395078Y-85648996D01*
X122524659Y-85755341D01*
X122631004Y-85884922D01*
X122631005Y-85884924D01*
X122710024Y-86032758D01*
X122758687Y-86193177D01*
X122775117Y-86360000D01*
X122758687Y-86526823D01*
X122710024Y-86687242D01*
X122680350Y-86742758D01*
X122631004Y-86835078D01*
X122524659Y-86964659D01*
X122395078Y-87071004D01*
X122395076Y-87071005D01*
X122247242Y-87150024D01*
X122086823Y-87198687D01*
X121961804Y-87211000D01*
X121878196Y-87211000D01*
X121753177Y-87198687D01*
X121592758Y-87150024D01*
X121444924Y-87071005D01*
X121444922Y-87071004D01*
X121315341Y-86964659D01*
X121208996Y-86835078D01*
X121159650Y-86742758D01*
X121129976Y-86687242D01*
X121081313Y-86526823D01*
X121064883Y-86360000D01*
X121081313Y-86193177D01*
X121129976Y-86032758D01*
X121208995Y-85884924D01*
X121208996Y-85884922D01*
X121315341Y-85755341D01*
X121444922Y-85648996D01*
X121523078Y-85607221D01*
X121592758Y-85569976D01*
X121753177Y-85521313D01*
X121878196Y-85509000D01*
X121961804Y-85509000D01*
X122086823Y-85521313D01*
X122086823Y-85521313D01*
G37*
G36*
X106846823Y-85521313D02*
G01*
X107007242Y-85569976D01*
X107076922Y-85607221D01*
X107155078Y-85648996D01*
X107284659Y-85755341D01*
X107391004Y-85884922D01*
X107391005Y-85884924D01*
X107470024Y-86032758D01*
X107518687Y-86193177D01*
X107535117Y-86360000D01*
X107518687Y-86526823D01*
X107470024Y-86687242D01*
X107440350Y-86742758D01*
X107391004Y-86835078D01*
X107284659Y-86964659D01*
X107155078Y-87071004D01*
X107155076Y-87071005D01*
X107007242Y-87150024D01*
X106846823Y-87198687D01*
X106721804Y-87211000D01*
X106638196Y-87211000D01*
X106513177Y-87198687D01*
X106352758Y-87150024D01*
X106204924Y-87071005D01*
X106204922Y-87071004D01*
X106075341Y-86964659D01*
X105968996Y-86835078D01*
X105919650Y-86742758D01*
X105889976Y-86687242D01*
X105841313Y-86526823D01*
X105824883Y-86360000D01*
X105841313Y-86193177D01*
X105889976Y-86032758D01*
X105968995Y-85884924D01*
X105968996Y-85884922D01*
X106075341Y-85755341D01*
X106204922Y-85648996D01*
X106283078Y-85607221D01*
X106352758Y-85569976D01*
X106513177Y-85521313D01*
X106638196Y-85509000D01*
X106721804Y-85509000D01*
X106846823Y-85521313D01*
X106846823Y-85521313D01*
G37*
G36*
X79485142Y-84359042D02*
G01*
X79633101Y-84420329D01*
X79766255Y-84509299D01*
X79879501Y-84622545D01*
X79968471Y-84755699D01*
X80029758Y-84903658D01*
X80061000Y-85060725D01*
X80061000Y-85220875D01*
X80029758Y-85377942D01*
X79968471Y-85525901D01*
X79879501Y-85659055D01*
X79766255Y-85772301D01*
X79633101Y-85861271D01*
X79485142Y-85922558D01*
X79328075Y-85953800D01*
X79167925Y-85953800D01*
X79010858Y-85922558D01*
X78862899Y-85861271D01*
X78729745Y-85772301D01*
X78616499Y-85659055D01*
X78527529Y-85525901D01*
X78466242Y-85377942D01*
X78435000Y-85220875D01*
X78435000Y-85060725D01*
X78466242Y-84903658D01*
X78527529Y-84755699D01*
X78616499Y-84622545D01*
X78729745Y-84509299D01*
X78862899Y-84420329D01*
X79010858Y-84359042D01*
X79167925Y-84327800D01*
X79328075Y-84327800D01*
X79485142Y-84359042D01*
X79485142Y-84359042D01*
G37*
G36*
X94725142Y-84359042D02*
G01*
X94873101Y-84420329D01*
X95006255Y-84509299D01*
X95119501Y-84622545D01*
X95208471Y-84755699D01*
X95269758Y-84903658D01*
X95301000Y-85060725D01*
X95301000Y-85220875D01*
X95269758Y-85377942D01*
X95208471Y-85525901D01*
X95119501Y-85659055D01*
X95006255Y-85772301D01*
X94873101Y-85861271D01*
X94725142Y-85922558D01*
X94568075Y-85953800D01*
X94407925Y-85953800D01*
X94250858Y-85922558D01*
X94102899Y-85861271D01*
X93969745Y-85772301D01*
X93856499Y-85659055D01*
X93767529Y-85525901D01*
X93706242Y-85377942D01*
X93675000Y-85220875D01*
X93675000Y-85060725D01*
X93706242Y-84903658D01*
X93767529Y-84755699D01*
X93856499Y-84622545D01*
X93969745Y-84509299D01*
X94102899Y-84420329D01*
X94250858Y-84359042D01*
X94407925Y-84327800D01*
X94568075Y-84327800D01*
X94725142Y-84359042D01*
X94725142Y-84359042D01*
G37*
G36*
X68792042Y-84144718D02*
G01*
X68858227Y-84151237D01*
X69028066Y-84202757D01*
X69184591Y-84286422D01*
X69195138Y-84295078D01*
X69321786Y-84399014D01*
X69405048Y-84500471D01*
X69434378Y-84536209D01*
X69518043Y-84692734D01*
X69569563Y-84862573D01*
X69586959Y-85039200D01*
X69569563Y-85215827D01*
X69518043Y-85385666D01*
X69434378Y-85542191D01*
X69411576Y-85569975D01*
X69321786Y-85679386D01*
X69229233Y-85755341D01*
X69184591Y-85791978D01*
X69184589Y-85791979D01*
X69062928Y-85857009D01*
X69028066Y-85875643D01*
X68858227Y-85927163D01*
X68792043Y-85933681D01*
X68725860Y-85940200D01*
X68637340Y-85940200D01*
X68571157Y-85933681D01*
X68504973Y-85927163D01*
X68335134Y-85875643D01*
X68300273Y-85857009D01*
X68178611Y-85791979D01*
X68178609Y-85791978D01*
X68133967Y-85755341D01*
X68041414Y-85679386D01*
X67951624Y-85569975D01*
X67928822Y-85542191D01*
X67845157Y-85385666D01*
X67793637Y-85215827D01*
X67776241Y-85039200D01*
X67793637Y-84862573D01*
X67845157Y-84692734D01*
X67928822Y-84536209D01*
X67958152Y-84500471D01*
X68041414Y-84399014D01*
X68168062Y-84295078D01*
X68178609Y-84286422D01*
X68335134Y-84202757D01*
X68504973Y-84151237D01*
X68571158Y-84144718D01*
X68637340Y-84138200D01*
X68725860Y-84138200D01*
X68792042Y-84144718D01*
X68792042Y-84144718D01*
G37*
G36*
X106846823Y-82981313D02*
G01*
X107007242Y-83029976D01*
X107139906Y-83100886D01*
X107155078Y-83108996D01*
X107284659Y-83215341D01*
X107391004Y-83344922D01*
X107391005Y-83344924D01*
X107470024Y-83492758D01*
X107518687Y-83653177D01*
X107535117Y-83820000D01*
X107518687Y-83986823D01*
X107470024Y-84147242D01*
X107440350Y-84202758D01*
X107391004Y-84295078D01*
X107284659Y-84424659D01*
X107155078Y-84531004D01*
X107155076Y-84531005D01*
X107007242Y-84610024D01*
X106846823Y-84658687D01*
X106721804Y-84671000D01*
X106638196Y-84671000D01*
X106513177Y-84658687D01*
X106352758Y-84610024D01*
X106204924Y-84531005D01*
X106204922Y-84531004D01*
X106075341Y-84424659D01*
X105968996Y-84295078D01*
X105919650Y-84202758D01*
X105889976Y-84147242D01*
X105841313Y-83986823D01*
X105824883Y-83820000D01*
X105841313Y-83653177D01*
X105889976Y-83492758D01*
X105968995Y-83344924D01*
X105968996Y-83344922D01*
X106075341Y-83215341D01*
X106204922Y-83108996D01*
X106220094Y-83100886D01*
X106352758Y-83029976D01*
X106513177Y-82981313D01*
X106638196Y-82969000D01*
X106721804Y-82969000D01*
X106846823Y-82981313D01*
X106846823Y-82981313D01*
G37*
G36*
X122086823Y-82981313D02*
G01*
X122247242Y-83029976D01*
X122379906Y-83100886D01*
X122395078Y-83108996D01*
X122524659Y-83215341D01*
X122631004Y-83344922D01*
X122631005Y-83344924D01*
X122710024Y-83492758D01*
X122758687Y-83653177D01*
X122775117Y-83820000D01*
X122758687Y-83986823D01*
X122710024Y-84147242D01*
X122680350Y-84202758D01*
X122631004Y-84295078D01*
X122524659Y-84424659D01*
X122395078Y-84531004D01*
X122395076Y-84531005D01*
X122247242Y-84610024D01*
X122086823Y-84658687D01*
X121961804Y-84671000D01*
X121878196Y-84671000D01*
X121753177Y-84658687D01*
X121592758Y-84610024D01*
X121444924Y-84531005D01*
X121444922Y-84531004D01*
X121315341Y-84424659D01*
X121208996Y-84295078D01*
X121159650Y-84202758D01*
X121129976Y-84147242D01*
X121081313Y-83986823D01*
X121064883Y-83820000D01*
X121081313Y-83653177D01*
X121129976Y-83492758D01*
X121208995Y-83344924D01*
X121208996Y-83344922D01*
X121315341Y-83215341D01*
X121444922Y-83108996D01*
X121460094Y-83100886D01*
X121592758Y-83029976D01*
X121753177Y-82981313D01*
X121878196Y-82969000D01*
X121961804Y-82969000D01*
X122086823Y-82981313D01*
X122086823Y-82981313D01*
G37*
G36*
X94725142Y-81819042D02*
G01*
X94873101Y-81880329D01*
X95006255Y-81969299D01*
X95119501Y-82082545D01*
X95208471Y-82215699D01*
X95269758Y-82363658D01*
X95301000Y-82520725D01*
X95301000Y-82680875D01*
X95269758Y-82837942D01*
X95208471Y-82985901D01*
X95119501Y-83119055D01*
X95006255Y-83232301D01*
X94873101Y-83321271D01*
X94725142Y-83382558D01*
X94568075Y-83413800D01*
X94407925Y-83413800D01*
X94250858Y-83382558D01*
X94102899Y-83321271D01*
X93969745Y-83232301D01*
X93856499Y-83119055D01*
X93767529Y-82985901D01*
X93706242Y-82837942D01*
X93675000Y-82680875D01*
X93675000Y-82520725D01*
X93706242Y-82363658D01*
X93767529Y-82215699D01*
X93856499Y-82082545D01*
X93969745Y-81969299D01*
X94102899Y-81880329D01*
X94250858Y-81819042D01*
X94407925Y-81787800D01*
X94568075Y-81787800D01*
X94725142Y-81819042D01*
X94725142Y-81819042D01*
G37*
G36*
X79485142Y-81819042D02*
G01*
X79633101Y-81880329D01*
X79766255Y-81969299D01*
X79879501Y-82082545D01*
X79968471Y-82215699D01*
X80029758Y-82363658D01*
X80061000Y-82520725D01*
X80061000Y-82680875D01*
X80029758Y-82837942D01*
X79968471Y-82985901D01*
X79879501Y-83119055D01*
X79766255Y-83232301D01*
X79633101Y-83321271D01*
X79485142Y-83382558D01*
X79328075Y-83413800D01*
X79167925Y-83413800D01*
X79010858Y-83382558D01*
X78862899Y-83321271D01*
X78729745Y-83232301D01*
X78616499Y-83119055D01*
X78527529Y-82985901D01*
X78466242Y-82837942D01*
X78435000Y-82680875D01*
X78435000Y-82520725D01*
X78466242Y-82363658D01*
X78527529Y-82215699D01*
X78616499Y-82082545D01*
X78729745Y-81969299D01*
X78862899Y-81880329D01*
X79010858Y-81819042D01*
X79167925Y-81787800D01*
X79328075Y-81787800D01*
X79485142Y-81819042D01*
X79485142Y-81819042D01*
G37*
G36*
X68792043Y-81604719D02*
G01*
X68858227Y-81611237D01*
X69028066Y-81662757D01*
X69184591Y-81746422D01*
X69195138Y-81755078D01*
X69321786Y-81859014D01*
X69405048Y-81960471D01*
X69434378Y-81996209D01*
X69518043Y-82152734D01*
X69569563Y-82322573D01*
X69586959Y-82499200D01*
X69569563Y-82675827D01*
X69518043Y-82845666D01*
X69434378Y-83002191D01*
X69411576Y-83029975D01*
X69321786Y-83139386D01*
X69229233Y-83215341D01*
X69184591Y-83251978D01*
X69028066Y-83335643D01*
X68858227Y-83387163D01*
X68792043Y-83393681D01*
X68725860Y-83400200D01*
X68637340Y-83400200D01*
X68571157Y-83393681D01*
X68504973Y-83387163D01*
X68335134Y-83335643D01*
X68178609Y-83251978D01*
X68133967Y-83215341D01*
X68041414Y-83139386D01*
X67951624Y-83029975D01*
X67928822Y-83002191D01*
X67845157Y-82845666D01*
X67793637Y-82675827D01*
X67776241Y-82499200D01*
X67793637Y-82322573D01*
X67845157Y-82152734D01*
X67928822Y-81996209D01*
X67958152Y-81960471D01*
X68041414Y-81859014D01*
X68168062Y-81755078D01*
X68178609Y-81746422D01*
X68335134Y-81662757D01*
X68504973Y-81611237D01*
X68571157Y-81604719D01*
X68637340Y-81598200D01*
X68725860Y-81598200D01*
X68792043Y-81604719D01*
X68792043Y-81604719D01*
G37*
G36*
X122086823Y-80441313D02*
G01*
X122247242Y-80489976D01*
X122379906Y-80560886D01*
X122395078Y-80568996D01*
X122524659Y-80675341D01*
X122631004Y-80804922D01*
X122631005Y-80804924D01*
X122710024Y-80952758D01*
X122758687Y-81113177D01*
X122775117Y-81280000D01*
X122758687Y-81446823D01*
X122710024Y-81607242D01*
X122680350Y-81662758D01*
X122631004Y-81755078D01*
X122524659Y-81884659D01*
X122395078Y-81991004D01*
X122395076Y-81991005D01*
X122247242Y-82070024D01*
X122086823Y-82118687D01*
X121961804Y-82131000D01*
X121878196Y-82131000D01*
X121753177Y-82118687D01*
X121592758Y-82070024D01*
X121444924Y-81991005D01*
X121444922Y-81991004D01*
X121315341Y-81884659D01*
X121208996Y-81755078D01*
X121159650Y-81662758D01*
X121129976Y-81607242D01*
X121081313Y-81446823D01*
X121064883Y-81280000D01*
X121081313Y-81113177D01*
X121129976Y-80952758D01*
X121208995Y-80804924D01*
X121208996Y-80804922D01*
X121315341Y-80675341D01*
X121444922Y-80568996D01*
X121460094Y-80560886D01*
X121592758Y-80489976D01*
X121753177Y-80441313D01*
X121878196Y-80429000D01*
X121961804Y-80429000D01*
X122086823Y-80441313D01*
X122086823Y-80441313D01*
G37*
G36*
X106846823Y-80441313D02*
G01*
X107007242Y-80489976D01*
X107139906Y-80560886D01*
X107155078Y-80568996D01*
X107284659Y-80675341D01*
X107391004Y-80804922D01*
X107391005Y-80804924D01*
X107470024Y-80952758D01*
X107518687Y-81113177D01*
X107535117Y-81280000D01*
X107518687Y-81446823D01*
X107470024Y-81607242D01*
X107440350Y-81662758D01*
X107391004Y-81755078D01*
X107284659Y-81884659D01*
X107155078Y-81991004D01*
X107155076Y-81991005D01*
X107007242Y-82070024D01*
X106846823Y-82118687D01*
X106721804Y-82131000D01*
X106638196Y-82131000D01*
X106513177Y-82118687D01*
X106352758Y-82070024D01*
X106204924Y-81991005D01*
X106204922Y-81991004D01*
X106075341Y-81884659D01*
X105968996Y-81755078D01*
X105919650Y-81662758D01*
X105889976Y-81607242D01*
X105841313Y-81446823D01*
X105824883Y-81280000D01*
X105841313Y-81113177D01*
X105889976Y-80952758D01*
X105968995Y-80804924D01*
X105968996Y-80804922D01*
X106075341Y-80675341D01*
X106204922Y-80568996D01*
X106220094Y-80560886D01*
X106352758Y-80489976D01*
X106513177Y-80441313D01*
X106638196Y-80429000D01*
X106721804Y-80429000D01*
X106846823Y-80441313D01*
X106846823Y-80441313D01*
G37*
G36*
X145681000Y-80911000D02*
G01*
X143879000Y-80911000D01*
X143879000Y-79109000D01*
X145681000Y-79109000D01*
X145681000Y-80911000D01*
X145681000Y-80911000D01*
G37*
G36*
X147430443Y-79115519D02*
G01*
X147496627Y-79122037D01*
X147666466Y-79173557D01*
X147822991Y-79257222D01*
X147849580Y-79279043D01*
X147960186Y-79369814D01*
X148040369Y-79467519D01*
X148072778Y-79507009D01*
X148156443Y-79663534D01*
X148207963Y-79833373D01*
X148225359Y-80010000D01*
X148207963Y-80186627D01*
X148156443Y-80356466D01*
X148072778Y-80512991D01*
X148043448Y-80548729D01*
X147960186Y-80650186D01*
X147858729Y-80733448D01*
X147822991Y-80762778D01*
X147666466Y-80846443D01*
X147496627Y-80897963D01*
X147430442Y-80904482D01*
X147364260Y-80911000D01*
X147275740Y-80911000D01*
X147209558Y-80904482D01*
X147143373Y-80897963D01*
X146973534Y-80846443D01*
X146817009Y-80762778D01*
X146781271Y-80733448D01*
X146679814Y-80650186D01*
X146596552Y-80548729D01*
X146567222Y-80512991D01*
X146483557Y-80356466D01*
X146432037Y-80186627D01*
X146414641Y-80010000D01*
X146432037Y-79833373D01*
X146483557Y-79663534D01*
X146567222Y-79507009D01*
X146599631Y-79467519D01*
X146679814Y-79369814D01*
X146790420Y-79279043D01*
X146817009Y-79257222D01*
X146973534Y-79173557D01*
X147143373Y-79122037D01*
X147209557Y-79115519D01*
X147275740Y-79109000D01*
X147364260Y-79109000D01*
X147430443Y-79115519D01*
X147430443Y-79115519D01*
G37*
G36*
X149970443Y-79115519D02*
G01*
X150036627Y-79122037D01*
X150206466Y-79173557D01*
X150362991Y-79257222D01*
X150389580Y-79279043D01*
X150500186Y-79369814D01*
X150580369Y-79467519D01*
X150612778Y-79507009D01*
X150696443Y-79663534D01*
X150747963Y-79833373D01*
X150765359Y-80010000D01*
X150747963Y-80186627D01*
X150696443Y-80356466D01*
X150612778Y-80512991D01*
X150583448Y-80548729D01*
X150500186Y-80650186D01*
X150398729Y-80733448D01*
X150362991Y-80762778D01*
X150206466Y-80846443D01*
X150036627Y-80897963D01*
X149970442Y-80904482D01*
X149904260Y-80911000D01*
X149815740Y-80911000D01*
X149749558Y-80904482D01*
X149683373Y-80897963D01*
X149513534Y-80846443D01*
X149357009Y-80762778D01*
X149321271Y-80733448D01*
X149219814Y-80650186D01*
X149136552Y-80548729D01*
X149107222Y-80512991D01*
X149023557Y-80356466D01*
X148972037Y-80186627D01*
X148954641Y-80010000D01*
X148972037Y-79833373D01*
X149023557Y-79663534D01*
X149107222Y-79507009D01*
X149139631Y-79467519D01*
X149219814Y-79369814D01*
X149330420Y-79279043D01*
X149357009Y-79257222D01*
X149513534Y-79173557D01*
X149683373Y-79122037D01*
X149749557Y-79115519D01*
X149815740Y-79109000D01*
X149904260Y-79109000D01*
X149970443Y-79115519D01*
X149970443Y-79115519D01*
G37*
G36*
X94725142Y-79279042D02*
G01*
X94873101Y-79340329D01*
X95006255Y-79429299D01*
X95119501Y-79542545D01*
X95208471Y-79675699D01*
X95269758Y-79823658D01*
X95301000Y-79980725D01*
X95301000Y-80140875D01*
X95269758Y-80297942D01*
X95208471Y-80445901D01*
X95119501Y-80579055D01*
X95006255Y-80692301D01*
X94873101Y-80781271D01*
X94725142Y-80842558D01*
X94568075Y-80873800D01*
X94407925Y-80873800D01*
X94250858Y-80842558D01*
X94102899Y-80781271D01*
X93969745Y-80692301D01*
X93856499Y-80579055D01*
X93767529Y-80445901D01*
X93706242Y-80297942D01*
X93675000Y-80140875D01*
X93675000Y-79980725D01*
X93706242Y-79823658D01*
X93767529Y-79675699D01*
X93856499Y-79542545D01*
X93969745Y-79429299D01*
X94102899Y-79340329D01*
X94250858Y-79279042D01*
X94407925Y-79247800D01*
X94568075Y-79247800D01*
X94725142Y-79279042D01*
X94725142Y-79279042D01*
G37*
G36*
X79485142Y-79279042D02*
G01*
X79633101Y-79340329D01*
X79766255Y-79429299D01*
X79879501Y-79542545D01*
X79968471Y-79675699D01*
X80029758Y-79823658D01*
X80061000Y-79980725D01*
X80061000Y-80140875D01*
X80029758Y-80297942D01*
X79968471Y-80445901D01*
X79879501Y-80579055D01*
X79766255Y-80692301D01*
X79633101Y-80781271D01*
X79485142Y-80842558D01*
X79328075Y-80873800D01*
X79167925Y-80873800D01*
X79010858Y-80842558D01*
X78862899Y-80781271D01*
X78729745Y-80692301D01*
X78616499Y-80579055D01*
X78527529Y-80445901D01*
X78466242Y-80297942D01*
X78435000Y-80140875D01*
X78435000Y-79980725D01*
X78466242Y-79823658D01*
X78527529Y-79675699D01*
X78616499Y-79542545D01*
X78729745Y-79429299D01*
X78862899Y-79340329D01*
X79010858Y-79279042D01*
X79167925Y-79247800D01*
X79328075Y-79247800D01*
X79485142Y-79279042D01*
X79485142Y-79279042D01*
G37*
G36*
X153918228Y-79191703D02*
G01*
X154073100Y-79255853D01*
X154212481Y-79348985D01*
X154331015Y-79467519D01*
X154424147Y-79606900D01*
X154488297Y-79761772D01*
X154521000Y-79926184D01*
X154521000Y-80093816D01*
X154488297Y-80258228D01*
X154424147Y-80413100D01*
X154331015Y-80552481D01*
X154212481Y-80671015D01*
X154073100Y-80764147D01*
X153918228Y-80828297D01*
X153753816Y-80861000D01*
X153586184Y-80861000D01*
X153421772Y-80828297D01*
X153266900Y-80764147D01*
X153127519Y-80671015D01*
X153008985Y-80552481D01*
X152915853Y-80413100D01*
X152851703Y-80258228D01*
X152819000Y-80093816D01*
X152819000Y-79926184D01*
X152851703Y-79761772D01*
X152915853Y-79606900D01*
X153008985Y-79467519D01*
X153127519Y-79348985D01*
X153266900Y-79255853D01*
X153421772Y-79191703D01*
X153586184Y-79159000D01*
X153753816Y-79159000D01*
X153918228Y-79191703D01*
X153918228Y-79191703D01*
G37*
G36*
X69582600Y-80860200D02*
G01*
X67780600Y-80860200D01*
X67780600Y-79058200D01*
X69582600Y-79058200D01*
X69582600Y-80860200D01*
X69582600Y-80860200D01*
G37*
G36*
X106846823Y-77901313D02*
G01*
X107007242Y-77949976D01*
X107139906Y-78020886D01*
X107155078Y-78028996D01*
X107284659Y-78135341D01*
X107391004Y-78264922D01*
X107391005Y-78264924D01*
X107470024Y-78412758D01*
X107518687Y-78573177D01*
X107535117Y-78740000D01*
X107518687Y-78906823D01*
X107470024Y-79067242D01*
X107440735Y-79122037D01*
X107391004Y-79215078D01*
X107284659Y-79344659D01*
X107155078Y-79451004D01*
X107155076Y-79451005D01*
X107007242Y-79530024D01*
X106846823Y-79578687D01*
X106721804Y-79591000D01*
X106638196Y-79591000D01*
X106513177Y-79578687D01*
X106352758Y-79530024D01*
X106204924Y-79451005D01*
X106204922Y-79451004D01*
X106075341Y-79344659D01*
X105968996Y-79215078D01*
X105919265Y-79122037D01*
X105889976Y-79067242D01*
X105841313Y-78906823D01*
X105824883Y-78740000D01*
X105841313Y-78573177D01*
X105889976Y-78412758D01*
X105968995Y-78264924D01*
X105968996Y-78264922D01*
X106075341Y-78135341D01*
X106204922Y-78028996D01*
X106220094Y-78020886D01*
X106352758Y-77949976D01*
X106513177Y-77901313D01*
X106638196Y-77889000D01*
X106721804Y-77889000D01*
X106846823Y-77901313D01*
X106846823Y-77901313D01*
G37*
G36*
X122086823Y-77901313D02*
G01*
X122247242Y-77949976D01*
X122379906Y-78020886D01*
X122395078Y-78028996D01*
X122524659Y-78135341D01*
X122631004Y-78264922D01*
X122631005Y-78264924D01*
X122710024Y-78412758D01*
X122758687Y-78573177D01*
X122775117Y-78740000D01*
X122758687Y-78906823D01*
X122710024Y-79067242D01*
X122680735Y-79122037D01*
X122631004Y-79215078D01*
X122524659Y-79344659D01*
X122395078Y-79451004D01*
X122395076Y-79451005D01*
X122247242Y-79530024D01*
X122086823Y-79578687D01*
X121961804Y-79591000D01*
X121878196Y-79591000D01*
X121753177Y-79578687D01*
X121592758Y-79530024D01*
X121444924Y-79451005D01*
X121444922Y-79451004D01*
X121315341Y-79344659D01*
X121208996Y-79215078D01*
X121159265Y-79122037D01*
X121129976Y-79067242D01*
X121081313Y-78906823D01*
X121064883Y-78740000D01*
X121081313Y-78573177D01*
X121129976Y-78412758D01*
X121208995Y-78264924D01*
X121208996Y-78264922D01*
X121315341Y-78135341D01*
X121444922Y-78028996D01*
X121460094Y-78020886D01*
X121592758Y-77949976D01*
X121753177Y-77901313D01*
X121878196Y-77889000D01*
X121961804Y-77889000D01*
X122086823Y-77901313D01*
X122086823Y-77901313D01*
G37*
G36*
X79485142Y-76739042D02*
G01*
X79633101Y-76800329D01*
X79766255Y-76889299D01*
X79879501Y-77002545D01*
X79968471Y-77135699D01*
X80029758Y-77283658D01*
X80061000Y-77440725D01*
X80061000Y-77600875D01*
X80029758Y-77757942D01*
X79968471Y-77905901D01*
X79879501Y-78039055D01*
X79766255Y-78152301D01*
X79633101Y-78241271D01*
X79485142Y-78302558D01*
X79328075Y-78333800D01*
X79167925Y-78333800D01*
X79010858Y-78302558D01*
X78862899Y-78241271D01*
X78729745Y-78152301D01*
X78616499Y-78039055D01*
X78527529Y-77905901D01*
X78466242Y-77757942D01*
X78435000Y-77600875D01*
X78435000Y-77440725D01*
X78466242Y-77283658D01*
X78527529Y-77135699D01*
X78616499Y-77002545D01*
X78729745Y-76889299D01*
X78862899Y-76800329D01*
X79010858Y-76739042D01*
X79167925Y-76707800D01*
X79328075Y-76707800D01*
X79485142Y-76739042D01*
X79485142Y-76739042D01*
G37*
G36*
X94725142Y-76739042D02*
G01*
X94873101Y-76800329D01*
X95006255Y-76889299D01*
X95119501Y-77002545D01*
X95208471Y-77135699D01*
X95269758Y-77283658D01*
X95301000Y-77440725D01*
X95301000Y-77600875D01*
X95269758Y-77757942D01*
X95208471Y-77905901D01*
X95119501Y-78039055D01*
X95006255Y-78152301D01*
X94873101Y-78241271D01*
X94725142Y-78302558D01*
X94568075Y-78333800D01*
X94407925Y-78333800D01*
X94250858Y-78302558D01*
X94102899Y-78241271D01*
X93969745Y-78152301D01*
X93856499Y-78039055D01*
X93767529Y-77905901D01*
X93706242Y-77757942D01*
X93675000Y-77600875D01*
X93675000Y-77440725D01*
X93706242Y-77283658D01*
X93767529Y-77135699D01*
X93856499Y-77002545D01*
X93969745Y-76889299D01*
X94102899Y-76800329D01*
X94250858Y-76739042D01*
X94407925Y-76707800D01*
X94568075Y-76707800D01*
X94725142Y-76739042D01*
X94725142Y-76739042D01*
G37*
G36*
X79485142Y-74199042D02*
G01*
X79633101Y-74260329D01*
X79766255Y-74349299D01*
X79879501Y-74462545D01*
X79968471Y-74595699D01*
X80029758Y-74743658D01*
X80061000Y-74900725D01*
X80061000Y-75060875D01*
X80029758Y-75217942D01*
X79968471Y-75365901D01*
X79879501Y-75499055D01*
X79766255Y-75612301D01*
X79633101Y-75701271D01*
X79485142Y-75762558D01*
X79328075Y-75793800D01*
X79167925Y-75793800D01*
X79010858Y-75762558D01*
X78862899Y-75701271D01*
X78729745Y-75612301D01*
X78616499Y-75499055D01*
X78527529Y-75365901D01*
X78466242Y-75217942D01*
X78435000Y-75060875D01*
X78435000Y-74900725D01*
X78466242Y-74743658D01*
X78527529Y-74595699D01*
X78616499Y-74462545D01*
X78729745Y-74349299D01*
X78862899Y-74260329D01*
X79010858Y-74199042D01*
X79167925Y-74167800D01*
X79328075Y-74167800D01*
X79485142Y-74199042D01*
X79485142Y-74199042D01*
G37*
G36*
X94725142Y-74199042D02*
G01*
X94873101Y-74260329D01*
X95006255Y-74349299D01*
X95119501Y-74462545D01*
X95208471Y-74595699D01*
X95269758Y-74743658D01*
X95301000Y-74900725D01*
X95301000Y-75060875D01*
X95269758Y-75217942D01*
X95208471Y-75365901D01*
X95119501Y-75499055D01*
X95006255Y-75612301D01*
X94873101Y-75701271D01*
X94725142Y-75762558D01*
X94568075Y-75793800D01*
X94407925Y-75793800D01*
X94250858Y-75762558D01*
X94102899Y-75701271D01*
X93969745Y-75612301D01*
X93856499Y-75499055D01*
X93767529Y-75365901D01*
X93706242Y-75217942D01*
X93675000Y-75060875D01*
X93675000Y-74900725D01*
X93706242Y-74743658D01*
X93767529Y-74595699D01*
X93856499Y-74462545D01*
X93969745Y-74349299D01*
X94102899Y-74260329D01*
X94250858Y-74199042D01*
X94407925Y-74167800D01*
X94568075Y-74167800D01*
X94725142Y-74199042D01*
X94725142Y-74199042D01*
G37*
G36*
X69198443Y-72257519D02*
G01*
X69264627Y-72264037D01*
X69434466Y-72315557D01*
X69590991Y-72399222D01*
X69626729Y-72428552D01*
X69728186Y-72511814D01*
X69811448Y-72613271D01*
X69840778Y-72649009D01*
X69924443Y-72805534D01*
X69975963Y-72975373D01*
X69993359Y-73152000D01*
X69975963Y-73328627D01*
X69924443Y-73498466D01*
X69840778Y-73654991D01*
X69811448Y-73690729D01*
X69728186Y-73792186D01*
X69626729Y-73875448D01*
X69590991Y-73904778D01*
X69434466Y-73988443D01*
X69264627Y-74039963D01*
X69198442Y-74046482D01*
X69132260Y-74053000D01*
X69043740Y-74053000D01*
X68977558Y-74046482D01*
X68911373Y-74039963D01*
X68741534Y-73988443D01*
X68585009Y-73904778D01*
X68549271Y-73875448D01*
X68447814Y-73792186D01*
X68364552Y-73690729D01*
X68335222Y-73654991D01*
X68251557Y-73498466D01*
X68200037Y-73328627D01*
X68182641Y-73152000D01*
X68200037Y-72975373D01*
X68251557Y-72805534D01*
X68335222Y-72649009D01*
X68364552Y-72613271D01*
X68447814Y-72511814D01*
X68549271Y-72428552D01*
X68585009Y-72399222D01*
X68741534Y-72315557D01*
X68911373Y-72264037D01*
X68977557Y-72257519D01*
X69043740Y-72251000D01*
X69132260Y-72251000D01*
X69198443Y-72257519D01*
X69198443Y-72257519D01*
G37*
G36*
X69198442Y-69717518D02*
G01*
X69264627Y-69724037D01*
X69434466Y-69775557D01*
X69590991Y-69859222D01*
X69626729Y-69888552D01*
X69728186Y-69971814D01*
X69811448Y-70073271D01*
X69840778Y-70109009D01*
X69924443Y-70265534D01*
X69975963Y-70435373D01*
X69993359Y-70612000D01*
X69975963Y-70788627D01*
X69924443Y-70958466D01*
X69840778Y-71114991D01*
X69811448Y-71150729D01*
X69728186Y-71252186D01*
X69626729Y-71335448D01*
X69590991Y-71364778D01*
X69434466Y-71448443D01*
X69264627Y-71499963D01*
X69198443Y-71506481D01*
X69132260Y-71513000D01*
X69043740Y-71513000D01*
X68977557Y-71506481D01*
X68911373Y-71499963D01*
X68741534Y-71448443D01*
X68585009Y-71364778D01*
X68549271Y-71335448D01*
X68447814Y-71252186D01*
X68364552Y-71150729D01*
X68335222Y-71114991D01*
X68251557Y-70958466D01*
X68200037Y-70788627D01*
X68182641Y-70612000D01*
X68200037Y-70435373D01*
X68251557Y-70265534D01*
X68335222Y-70109009D01*
X68364552Y-70073271D01*
X68447814Y-69971814D01*
X68549271Y-69888552D01*
X68585009Y-69859222D01*
X68741534Y-69775557D01*
X68911373Y-69724037D01*
X68977558Y-69717518D01*
X69043740Y-69711000D01*
X69132260Y-69711000D01*
X69198442Y-69717518D01*
X69198442Y-69717518D01*
G37*
G36*
X69198442Y-67177518D02*
G01*
X69264627Y-67184037D01*
X69434466Y-67235557D01*
X69590991Y-67319222D01*
X69626729Y-67348552D01*
X69728186Y-67431814D01*
X69811448Y-67533271D01*
X69840778Y-67569009D01*
X69924443Y-67725534D01*
X69975963Y-67895373D01*
X69993359Y-68072000D01*
X69975963Y-68248627D01*
X69924443Y-68418466D01*
X69840778Y-68574991D01*
X69811448Y-68610729D01*
X69728186Y-68712186D01*
X69626729Y-68795448D01*
X69590991Y-68824778D01*
X69434466Y-68908443D01*
X69264627Y-68959963D01*
X69198442Y-68966482D01*
X69132260Y-68973000D01*
X69043740Y-68973000D01*
X68977558Y-68966482D01*
X68911373Y-68959963D01*
X68741534Y-68908443D01*
X68585009Y-68824778D01*
X68549271Y-68795448D01*
X68447814Y-68712186D01*
X68364552Y-68610729D01*
X68335222Y-68574991D01*
X68251557Y-68418466D01*
X68200037Y-68248627D01*
X68182641Y-68072000D01*
X68200037Y-67895373D01*
X68251557Y-67725534D01*
X68335222Y-67569009D01*
X68364552Y-67533271D01*
X68447814Y-67431814D01*
X68549271Y-67348552D01*
X68585009Y-67319222D01*
X68741534Y-67235557D01*
X68911373Y-67184037D01*
X68977558Y-67177518D01*
X69043740Y-67171000D01*
X69132260Y-67171000D01*
X69198442Y-67177518D01*
X69198442Y-67177518D01*
G37*
G36*
X69989000Y-66433000D02*
G01*
X68187000Y-66433000D01*
X68187000Y-64631000D01*
X69989000Y-64631000D01*
X69989000Y-66433000D01*
X69989000Y-66433000D01*
G37*
M02*
