G04 #@! TF.GenerationSoftware,KiCad,Pcbnew,(5.1.4)-1*
G04 #@! TF.CreationDate,2020-02-28T02:40:08+11:00*
G04 #@! TF.ProjectId,glove_pcb,676c6f76-655f-4706-9362-2e6b69636164,rev?*
G04 #@! TF.SameCoordinates,Original*
G04 #@! TF.FileFunction,Legend,Top*
G04 #@! TF.FilePolarity,Positive*
%FSLAX46Y46*%
G04 Gerber Fmt 4.6, Leading zero omitted, Abs format (unit mm)*
G04 Created by KiCad (PCBNEW (5.1.4)-1) date 2020-02-28 02:40:08*
%MOMM*%
%LPD*%
G04 APERTURE LIST*
%ADD10C,0.120000*%
%ADD11C,0.150000*%
G04 APERTURE END LIST*
D10*
X60000000Y-135000000D02*
X160000000Y-135000000D01*
X60000000Y-60000000D02*
X160000000Y-60000000D01*
X160000000Y-60000000D02*
X160000000Y-135000000D01*
X60000000Y-60000000D02*
X60000000Y-135000000D01*
X59690000Y-70104000D02*
X59944000Y-70231000D01*
X95758000Y-102920800D02*
X95758000Y-102920800D01*
X95758000Y-104190800D02*
X95758000Y-102920800D01*
X77978000Y-104190800D02*
X95758000Y-104190800D01*
X77978000Y-73710800D02*
X77978000Y-104190800D01*
X95758000Y-73710800D02*
X77978000Y-73710800D01*
X95758000Y-104190800D02*
X95758000Y-73710800D01*
X120650000Y-113030000D02*
X120650000Y-115570000D01*
X120650000Y-115570000D02*
X123320000Y-115570000D01*
X123320000Y-113030000D02*
X123320000Y-74800000D01*
X123320000Y-118240000D02*
X123320000Y-115570000D01*
X107950000Y-115570000D02*
X105280000Y-115570000D01*
X107950000Y-115570000D02*
X107950000Y-77470000D01*
X107950000Y-77470000D02*
X105280000Y-77470000D01*
X120650000Y-113030000D02*
X123320000Y-113030000D01*
X120650000Y-113030000D02*
X120650000Y-77470000D01*
X120650000Y-77470000D02*
X123320000Y-77470000D01*
X123320000Y-74800000D02*
X105280000Y-74800000D01*
X105280000Y-74800000D02*
X105280000Y-118240000D01*
X105280000Y-118240000D02*
X123320000Y-118240000D01*
X123980000Y-125450000D02*
X123980000Y-134450000D01*
X123980000Y-134450000D02*
X114780000Y-134450000D01*
X114780000Y-134450000D02*
X114780000Y-119850000D01*
X114780000Y-119850000D02*
X117580000Y-119850000D01*
X121180000Y-119850000D02*
X123980000Y-119850000D01*
X123980000Y-119850000D02*
X123980000Y-121850000D01*
X114540000Y-121350000D02*
X114540000Y-119610000D01*
X114540000Y-119610000D02*
X116280000Y-119610000D01*
X105470000Y-119320000D02*
X102810000Y-119320000D01*
X105470000Y-121920000D02*
X105470000Y-119320000D01*
X102810000Y-121920000D02*
X102810000Y-119320000D01*
X105470000Y-121920000D02*
X102810000Y-121920000D01*
X105470000Y-123190000D02*
X105470000Y-124520000D01*
X105470000Y-124520000D02*
X104140000Y-124520000D01*
X110550000Y-124520000D02*
X109220000Y-124520000D01*
X110550000Y-123190000D02*
X110550000Y-124520000D01*
X110550000Y-121920000D02*
X107890000Y-121920000D01*
X107890000Y-121920000D02*
X107890000Y-119320000D01*
X110550000Y-121920000D02*
X110550000Y-119320000D01*
X110550000Y-119320000D02*
X107890000Y-119320000D01*
X148904000Y-115510000D02*
X148904000Y-116840000D01*
X147574000Y-115510000D02*
X148904000Y-115510000D01*
X146304000Y-115510000D02*
X146304000Y-118170000D01*
X146304000Y-118170000D02*
X143704000Y-118170000D01*
X146304000Y-115510000D02*
X143704000Y-115510000D01*
X143704000Y-115510000D02*
X143704000Y-118170000D01*
X143450000Y-101540000D02*
X143450000Y-104200000D01*
X146050000Y-101540000D02*
X143450000Y-101540000D01*
X146050000Y-104200000D02*
X143450000Y-104200000D01*
X146050000Y-101540000D02*
X146050000Y-104200000D01*
X147320000Y-101540000D02*
X148650000Y-101540000D01*
X148650000Y-101540000D02*
X148650000Y-102870000D01*
X128965000Y-97850000D02*
X127635000Y-97850000D01*
X128965000Y-96520000D02*
X128965000Y-97850000D01*
X128965000Y-95250000D02*
X126305000Y-95250000D01*
X126305000Y-95250000D02*
X126305000Y-87570000D01*
X128965000Y-95250000D02*
X128965000Y-87570000D01*
X128965000Y-87570000D02*
X126305000Y-87570000D01*
X102168000Y-85030000D02*
X99508000Y-85030000D01*
X102168000Y-92710000D02*
X102168000Y-85030000D01*
X99508000Y-92710000D02*
X99508000Y-85030000D01*
X102168000Y-92710000D02*
X99508000Y-92710000D01*
X102168000Y-93980000D02*
X102168000Y-95310000D01*
X102168000Y-95310000D02*
X100838000Y-95310000D01*
X148142000Y-86554000D02*
X148142000Y-87884000D01*
X146812000Y-86554000D02*
X148142000Y-86554000D01*
X145542000Y-86554000D02*
X145542000Y-89214000D01*
X145542000Y-89214000D02*
X142942000Y-89214000D01*
X145542000Y-86554000D02*
X142942000Y-86554000D01*
X142942000Y-86554000D02*
X142942000Y-89214000D01*
X102930000Y-100270000D02*
X100270000Y-100270000D01*
X102930000Y-102870000D02*
X102930000Y-100270000D01*
X100270000Y-102870000D02*
X100270000Y-100270000D01*
X102930000Y-102870000D02*
X100270000Y-102870000D01*
X102930000Y-104140000D02*
X102930000Y-105470000D01*
X102930000Y-105470000D02*
X101600000Y-105470000D01*
X131350000Y-106580000D02*
X131350000Y-109320000D01*
X131350000Y-109320000D02*
X137890000Y-109320000D01*
X137890000Y-109320000D02*
X137890000Y-106580000D01*
X137890000Y-106580000D02*
X131350000Y-106580000D01*
X130580000Y-107950000D02*
X131350000Y-107950000D01*
X138660000Y-107950000D02*
X137890000Y-107950000D01*
X153670000Y-119610000D02*
X153670000Y-118840000D01*
X153670000Y-111530000D02*
X153670000Y-112300000D01*
X155040000Y-118840000D02*
X155040000Y-112300000D01*
X152300000Y-118840000D02*
X155040000Y-118840000D01*
X152300000Y-112300000D02*
X152300000Y-118840000D01*
X155040000Y-112300000D02*
X152300000Y-112300000D01*
X138660000Y-104394000D02*
X137890000Y-104394000D01*
X130580000Y-104394000D02*
X131350000Y-104394000D01*
X137890000Y-103024000D02*
X131350000Y-103024000D01*
X137890000Y-105764000D02*
X137890000Y-103024000D01*
X131350000Y-105764000D02*
X137890000Y-105764000D01*
X131350000Y-103024000D02*
X131350000Y-105764000D01*
X155040000Y-97060000D02*
X152300000Y-97060000D01*
X152300000Y-97060000D02*
X152300000Y-103600000D01*
X152300000Y-103600000D02*
X155040000Y-103600000D01*
X155040000Y-103600000D02*
X155040000Y-97060000D01*
X153670000Y-96290000D02*
X153670000Y-97060000D01*
X153670000Y-104370000D02*
X153670000Y-103600000D01*
X131350000Y-99468000D02*
X131350000Y-102208000D01*
X131350000Y-102208000D02*
X137890000Y-102208000D01*
X137890000Y-102208000D02*
X137890000Y-99468000D01*
X137890000Y-99468000D02*
X131350000Y-99468000D01*
X130580000Y-100838000D02*
X131350000Y-100838000D01*
X138660000Y-100838000D02*
X137890000Y-100838000D01*
X153670000Y-89130000D02*
X153670000Y-88360000D01*
X153670000Y-81050000D02*
X153670000Y-81820000D01*
X155040000Y-88360000D02*
X155040000Y-81820000D01*
X152300000Y-88360000D02*
X155040000Y-88360000D01*
X152300000Y-81820000D02*
X152300000Y-88360000D01*
X155040000Y-81820000D02*
X152300000Y-81820000D01*
X67758000Y-64202000D02*
X69088000Y-64202000D01*
X67758000Y-65532000D02*
X67758000Y-64202000D01*
X67758000Y-66802000D02*
X70418000Y-66802000D01*
X70418000Y-66802000D02*
X70418000Y-74482000D01*
X67758000Y-66802000D02*
X67758000Y-74482000D01*
X67758000Y-74482000D02*
X70418000Y-74482000D01*
X67351600Y-88909200D02*
X70011600Y-88909200D01*
X67351600Y-81229200D02*
X67351600Y-88909200D01*
X70011600Y-81229200D02*
X70011600Y-88909200D01*
X67351600Y-81229200D02*
X70011600Y-81229200D01*
X67351600Y-79959200D02*
X67351600Y-78629200D01*
X67351600Y-78629200D02*
X68681600Y-78629200D01*
X67377000Y-104073000D02*
X70037000Y-104073000D01*
X67377000Y-96393000D02*
X67377000Y-104073000D01*
X70037000Y-96393000D02*
X70037000Y-104073000D01*
X67377000Y-96393000D02*
X70037000Y-96393000D01*
X67377000Y-95123000D02*
X67377000Y-93793000D01*
X67377000Y-93793000D02*
X68707000Y-93793000D01*
X67377000Y-107255000D02*
X68707000Y-107255000D01*
X67377000Y-108585000D02*
X67377000Y-107255000D01*
X67377000Y-109855000D02*
X70037000Y-109855000D01*
X70037000Y-109855000D02*
X70037000Y-117535000D01*
X67377000Y-109855000D02*
X67377000Y-117535000D01*
X67377000Y-117535000D02*
X70037000Y-117535000D01*
X67123000Y-130108000D02*
X69783000Y-130108000D01*
X67123000Y-122428000D02*
X67123000Y-130108000D01*
X69783000Y-122428000D02*
X69783000Y-130108000D01*
X67123000Y-122428000D02*
X69783000Y-122428000D01*
X67123000Y-121158000D02*
X67123000Y-119828000D01*
X67123000Y-119828000D02*
X68453000Y-119828000D01*
X151190000Y-111820000D02*
X151190000Y-109160000D01*
X146050000Y-111820000D02*
X151190000Y-111820000D01*
X146050000Y-109160000D02*
X151190000Y-109160000D01*
X146050000Y-111820000D02*
X146050000Y-109160000D01*
X144780000Y-111820000D02*
X143450000Y-111820000D01*
X143450000Y-111820000D02*
X143450000Y-110490000D01*
X143450000Y-96580000D02*
X143450000Y-95250000D01*
X144780000Y-96580000D02*
X143450000Y-96580000D01*
X146050000Y-96580000D02*
X146050000Y-93920000D01*
X146050000Y-93920000D02*
X151190000Y-93920000D01*
X146050000Y-96580000D02*
X151190000Y-96580000D01*
X151190000Y-96580000D02*
X151190000Y-93920000D01*
X151190000Y-81340000D02*
X151190000Y-78680000D01*
X146050000Y-81340000D02*
X151190000Y-81340000D01*
X146050000Y-78680000D02*
X151190000Y-78680000D01*
X146050000Y-81340000D02*
X146050000Y-78680000D01*
X144780000Y-81340000D02*
X143450000Y-81340000D01*
X143450000Y-81340000D02*
X143450000Y-80010000D01*
D11*
X83566095Y-105683180D02*
X83566095Y-106492704D01*
X83613714Y-106587942D01*
X83661333Y-106635561D01*
X83756571Y-106683180D01*
X83947047Y-106683180D01*
X84042285Y-106635561D01*
X84089904Y-106587942D01*
X84137523Y-106492704D01*
X84137523Y-105683180D01*
X85042285Y-105683180D02*
X84851809Y-105683180D01*
X84756571Y-105730800D01*
X84708952Y-105778419D01*
X84613714Y-105921276D01*
X84566095Y-106111752D01*
X84566095Y-106492704D01*
X84613714Y-106587942D01*
X84661333Y-106635561D01*
X84756571Y-106683180D01*
X84947047Y-106683180D01*
X85042285Y-106635561D01*
X85089904Y-106587942D01*
X85137523Y-106492704D01*
X85137523Y-106254609D01*
X85089904Y-106159371D01*
X85042285Y-106111752D01*
X84947047Y-106064133D01*
X84756571Y-106064133D01*
X84661333Y-106111752D01*
X84613714Y-106159371D01*
X84566095Y-106254609D01*
X113839714Y-111926666D02*
X114315904Y-111926666D01*
X113744476Y-112212380D02*
X114077809Y-111212380D01*
X114411142Y-112212380D01*
X115268285Y-112212380D02*
X114696857Y-112212380D01*
X114982571Y-112212380D02*
X114982571Y-111212380D01*
X114887333Y-111355238D01*
X114792095Y-111450476D01*
X114696857Y-111498095D01*
X124582380Y-129433333D02*
X125296666Y-129433333D01*
X125439523Y-129480952D01*
X125534761Y-129576190D01*
X125582380Y-129719047D01*
X125582380Y-129814285D01*
X125582380Y-128433333D02*
X125582380Y-129004761D01*
X125582380Y-128719047D02*
X124582380Y-128719047D01*
X124725238Y-128814285D01*
X124820476Y-128909523D01*
X124868095Y-129004761D01*
X103806666Y-125944380D02*
X103806666Y-126658666D01*
X103759047Y-126801523D01*
X103663809Y-126896761D01*
X103520952Y-126944380D01*
X103425714Y-126944380D01*
X104235238Y-126039619D02*
X104282857Y-125992000D01*
X104378095Y-125944380D01*
X104616190Y-125944380D01*
X104711428Y-125992000D01*
X104759047Y-126039619D01*
X104806666Y-126134857D01*
X104806666Y-126230095D01*
X104759047Y-126372952D01*
X104187619Y-126944380D01*
X104806666Y-126944380D01*
X108886666Y-125944380D02*
X108886666Y-126658666D01*
X108839047Y-126801523D01*
X108743809Y-126896761D01*
X108600952Y-126944380D01*
X108505714Y-126944380D01*
X109267619Y-125944380D02*
X109886666Y-125944380D01*
X109553333Y-126325333D01*
X109696190Y-126325333D01*
X109791428Y-126372952D01*
X109839047Y-126420571D01*
X109886666Y-126515809D01*
X109886666Y-126753904D01*
X109839047Y-126849142D01*
X109791428Y-126896761D01*
X109696190Y-126944380D01*
X109410476Y-126944380D01*
X109315238Y-126896761D01*
X109267619Y-126849142D01*
X149356380Y-117173333D02*
X150070666Y-117173333D01*
X150213523Y-117220952D01*
X150308761Y-117316190D01*
X150356380Y-117459047D01*
X150356380Y-117554285D01*
X149689714Y-116268571D02*
X150356380Y-116268571D01*
X149308761Y-116506666D02*
X150023047Y-116744761D01*
X150023047Y-116125714D01*
X150074380Y-103203333D02*
X150788666Y-103203333D01*
X150931523Y-103250952D01*
X151026761Y-103346190D01*
X151074380Y-103489047D01*
X151074380Y-103584285D01*
X150074380Y-102250952D02*
X150074380Y-102727142D01*
X150550571Y-102774761D01*
X150502952Y-102727142D01*
X150455333Y-102631904D01*
X150455333Y-102393809D01*
X150502952Y-102298571D01*
X150550571Y-102250952D01*
X150645809Y-102203333D01*
X150883904Y-102203333D01*
X150979142Y-102250952D01*
X151026761Y-102298571D01*
X151074380Y-102393809D01*
X151074380Y-102631904D01*
X151026761Y-102727142D01*
X150979142Y-102774761D01*
X127174666Y-85304380D02*
X127174666Y-86018666D01*
X127127047Y-86161523D01*
X127031809Y-86256761D01*
X126888952Y-86304380D01*
X126793714Y-86304380D01*
X128079428Y-85304380D02*
X127888952Y-85304380D01*
X127793714Y-85352000D01*
X127746095Y-85399619D01*
X127650857Y-85542476D01*
X127603238Y-85732952D01*
X127603238Y-86113904D01*
X127650857Y-86209142D01*
X127698476Y-86256761D01*
X127793714Y-86304380D01*
X127984190Y-86304380D01*
X128079428Y-86256761D01*
X128127047Y-86209142D01*
X128174666Y-86113904D01*
X128174666Y-85875809D01*
X128127047Y-85780571D01*
X128079428Y-85732952D01*
X127984190Y-85685333D01*
X127793714Y-85685333D01*
X127698476Y-85732952D01*
X127650857Y-85780571D01*
X127603238Y-85875809D01*
X100758666Y-83018380D02*
X100758666Y-83732666D01*
X100711047Y-83875523D01*
X100615809Y-83970761D01*
X100472952Y-84018380D01*
X100377714Y-84018380D01*
X101139619Y-83018380D02*
X101806285Y-83018380D01*
X101377714Y-84018380D01*
X149312380Y-88471333D02*
X150026666Y-88471333D01*
X150169523Y-88518952D01*
X150264761Y-88614190D01*
X150312380Y-88757047D01*
X150312380Y-88852285D01*
X149740952Y-87852285D02*
X149693333Y-87947523D01*
X149645714Y-87995142D01*
X149550476Y-88042761D01*
X149502857Y-88042761D01*
X149407619Y-87995142D01*
X149360000Y-87947523D01*
X149312380Y-87852285D01*
X149312380Y-87661809D01*
X149360000Y-87566571D01*
X149407619Y-87518952D01*
X149502857Y-87471333D01*
X149550476Y-87471333D01*
X149645714Y-87518952D01*
X149693333Y-87566571D01*
X149740952Y-87661809D01*
X149740952Y-87852285D01*
X149788571Y-87947523D01*
X149836190Y-87995142D01*
X149931428Y-88042761D01*
X150121904Y-88042761D01*
X150217142Y-87995142D01*
X150264761Y-87947523D01*
X150312380Y-87852285D01*
X150312380Y-87661809D01*
X150264761Y-87566571D01*
X150217142Y-87518952D01*
X150121904Y-87471333D01*
X149931428Y-87471333D01*
X149836190Y-87518952D01*
X149788571Y-87566571D01*
X149740952Y-87661809D01*
X101266666Y-105922380D02*
X101266666Y-106636666D01*
X101219047Y-106779523D01*
X101123809Y-106874761D01*
X100980952Y-106922380D01*
X100885714Y-106922380D01*
X101790476Y-106922380D02*
X101980952Y-106922380D01*
X102076190Y-106874761D01*
X102123809Y-106827142D01*
X102219047Y-106684285D01*
X102266666Y-106493809D01*
X102266666Y-106112857D01*
X102219047Y-106017619D01*
X102171428Y-105970000D01*
X102076190Y-105922380D01*
X101885714Y-105922380D01*
X101790476Y-105970000D01*
X101742857Y-106017619D01*
X101695238Y-106112857D01*
X101695238Y-106350952D01*
X101742857Y-106446190D01*
X101790476Y-106493809D01*
X101885714Y-106541428D01*
X102076190Y-106541428D01*
X102171428Y-106493809D01*
X102219047Y-106446190D01*
X102266666Y-106350952D01*
X134453333Y-112212380D02*
X134120000Y-111736190D01*
X133881904Y-112212380D02*
X133881904Y-111212380D01*
X134262857Y-111212380D01*
X134358095Y-111260000D01*
X134405714Y-111307619D01*
X134453333Y-111402857D01*
X134453333Y-111545714D01*
X134405714Y-111640952D01*
X134358095Y-111688571D01*
X134262857Y-111736190D01*
X133881904Y-111736190D01*
X135310476Y-111545714D02*
X135310476Y-112212380D01*
X135072380Y-111164761D02*
X134834285Y-111879047D01*
X135453333Y-111879047D01*
X156492380Y-115736666D02*
X156016190Y-116070000D01*
X156492380Y-116308095D02*
X155492380Y-116308095D01*
X155492380Y-115927142D01*
X155540000Y-115831904D01*
X155587619Y-115784285D01*
X155682857Y-115736666D01*
X155825714Y-115736666D01*
X155920952Y-115784285D01*
X155968571Y-115831904D01*
X156016190Y-115927142D01*
X156016190Y-116308095D01*
X155492380Y-114879523D02*
X155492380Y-115070000D01*
X155540000Y-115165238D01*
X155587619Y-115212857D01*
X155730476Y-115308095D01*
X155920952Y-115355714D01*
X156301904Y-115355714D01*
X156397142Y-115308095D01*
X156444761Y-115260476D01*
X156492380Y-115165238D01*
X156492380Y-114974761D01*
X156444761Y-114879523D01*
X156397142Y-114831904D01*
X156301904Y-114784285D01*
X156063809Y-114784285D01*
X155968571Y-114831904D01*
X155920952Y-114879523D01*
X155873333Y-114974761D01*
X155873333Y-115165238D01*
X155920952Y-115260476D01*
X155968571Y-115308095D01*
X156063809Y-115355714D01*
X134453333Y-104846380D02*
X134120000Y-104370190D01*
X133881904Y-104846380D02*
X133881904Y-103846380D01*
X134262857Y-103846380D01*
X134358095Y-103894000D01*
X134405714Y-103941619D01*
X134453333Y-104036857D01*
X134453333Y-104179714D01*
X134405714Y-104274952D01*
X134358095Y-104322571D01*
X134262857Y-104370190D01*
X133881904Y-104370190D01*
X135024761Y-104274952D02*
X134929523Y-104227333D01*
X134881904Y-104179714D01*
X134834285Y-104084476D01*
X134834285Y-104036857D01*
X134881904Y-103941619D01*
X134929523Y-103894000D01*
X135024761Y-103846380D01*
X135215238Y-103846380D01*
X135310476Y-103894000D01*
X135358095Y-103941619D01*
X135405714Y-104036857D01*
X135405714Y-104084476D01*
X135358095Y-104179714D01*
X135310476Y-104227333D01*
X135215238Y-104274952D01*
X135024761Y-104274952D01*
X134929523Y-104322571D01*
X134881904Y-104370190D01*
X134834285Y-104465428D01*
X134834285Y-104655904D01*
X134881904Y-104751142D01*
X134929523Y-104798761D01*
X135024761Y-104846380D01*
X135215238Y-104846380D01*
X135310476Y-104798761D01*
X135358095Y-104751142D01*
X135405714Y-104655904D01*
X135405714Y-104465428D01*
X135358095Y-104370190D01*
X135310476Y-104322571D01*
X135215238Y-104274952D01*
X156492380Y-100496666D02*
X156016190Y-100830000D01*
X156492380Y-101068095D02*
X155492380Y-101068095D01*
X155492380Y-100687142D01*
X155540000Y-100591904D01*
X155587619Y-100544285D01*
X155682857Y-100496666D01*
X155825714Y-100496666D01*
X155920952Y-100544285D01*
X155968571Y-100591904D01*
X156016190Y-100687142D01*
X156016190Y-101068095D01*
X156492380Y-100020476D02*
X156492380Y-99830000D01*
X156444761Y-99734761D01*
X156397142Y-99687142D01*
X156254285Y-99591904D01*
X156063809Y-99544285D01*
X155682857Y-99544285D01*
X155587619Y-99591904D01*
X155540000Y-99639523D01*
X155492380Y-99734761D01*
X155492380Y-99925238D01*
X155540000Y-100020476D01*
X155587619Y-100068095D01*
X155682857Y-100115714D01*
X155920952Y-100115714D01*
X156016190Y-100068095D01*
X156063809Y-100020476D01*
X156111428Y-99925238D01*
X156111428Y-99734761D01*
X156063809Y-99639523D01*
X156016190Y-99591904D01*
X155920952Y-99544285D01*
X133977142Y-98496380D02*
X133643809Y-98020190D01*
X133405714Y-98496380D02*
X133405714Y-97496380D01*
X133786666Y-97496380D01*
X133881904Y-97544000D01*
X133929523Y-97591619D01*
X133977142Y-97686857D01*
X133977142Y-97829714D01*
X133929523Y-97924952D01*
X133881904Y-97972571D01*
X133786666Y-98020190D01*
X133405714Y-98020190D01*
X134929523Y-98496380D02*
X134358095Y-98496380D01*
X134643809Y-98496380D02*
X134643809Y-97496380D01*
X134548571Y-97639238D01*
X134453333Y-97734476D01*
X134358095Y-97782095D01*
X135548571Y-97496380D02*
X135643809Y-97496380D01*
X135739047Y-97544000D01*
X135786666Y-97591619D01*
X135834285Y-97686857D01*
X135881904Y-97877333D01*
X135881904Y-98115428D01*
X135834285Y-98305904D01*
X135786666Y-98401142D01*
X135739047Y-98448761D01*
X135643809Y-98496380D01*
X135548571Y-98496380D01*
X135453333Y-98448761D01*
X135405714Y-98401142D01*
X135358095Y-98305904D01*
X135310476Y-98115428D01*
X135310476Y-97877333D01*
X135358095Y-97686857D01*
X135405714Y-97591619D01*
X135453333Y-97544000D01*
X135548571Y-97496380D01*
X156492380Y-85732857D02*
X156016190Y-86066190D01*
X156492380Y-86304285D02*
X155492380Y-86304285D01*
X155492380Y-85923333D01*
X155540000Y-85828095D01*
X155587619Y-85780476D01*
X155682857Y-85732857D01*
X155825714Y-85732857D01*
X155920952Y-85780476D01*
X155968571Y-85828095D01*
X156016190Y-85923333D01*
X156016190Y-86304285D01*
X156492380Y-84780476D02*
X156492380Y-85351904D01*
X156492380Y-85066190D02*
X155492380Y-85066190D01*
X155635238Y-85161428D01*
X155730476Y-85256666D01*
X155778095Y-85351904D01*
X156492380Y-83828095D02*
X156492380Y-84399523D01*
X156492380Y-84113809D02*
X155492380Y-84113809D01*
X155635238Y-84209047D01*
X155730476Y-84304285D01*
X155778095Y-84399523D01*
X68326095Y-62190380D02*
X68326095Y-62999904D01*
X68373714Y-63095142D01*
X68421333Y-63142761D01*
X68516571Y-63190380D01*
X68707047Y-63190380D01*
X68802285Y-63142761D01*
X68849904Y-63095142D01*
X68897523Y-62999904D01*
X68897523Y-62190380D01*
X69897523Y-63190380D02*
X69326095Y-63190380D01*
X69611809Y-63190380D02*
X69611809Y-62190380D01*
X69516571Y-62333238D01*
X69421333Y-62428476D01*
X69326095Y-62476095D01*
X68072095Y-76922380D02*
X68072095Y-77731904D01*
X68119714Y-77827142D01*
X68167333Y-77874761D01*
X68262571Y-77922380D01*
X68453047Y-77922380D01*
X68548285Y-77874761D01*
X68595904Y-77827142D01*
X68643523Y-77731904D01*
X68643523Y-76922380D01*
X69072095Y-77017619D02*
X69119714Y-76970000D01*
X69214952Y-76922380D01*
X69453047Y-76922380D01*
X69548285Y-76970000D01*
X69595904Y-77017619D01*
X69643523Y-77112857D01*
X69643523Y-77208095D01*
X69595904Y-77350952D01*
X69024476Y-77922380D01*
X69643523Y-77922380D01*
X68072095Y-91908380D02*
X68072095Y-92717904D01*
X68119714Y-92813142D01*
X68167333Y-92860761D01*
X68262571Y-92908380D01*
X68453047Y-92908380D01*
X68548285Y-92860761D01*
X68595904Y-92813142D01*
X68643523Y-92717904D01*
X68643523Y-91908380D01*
X69024476Y-91908380D02*
X69643523Y-91908380D01*
X69310190Y-92289333D01*
X69453047Y-92289333D01*
X69548285Y-92336952D01*
X69595904Y-92384571D01*
X69643523Y-92479809D01*
X69643523Y-92717904D01*
X69595904Y-92813142D01*
X69548285Y-92860761D01*
X69453047Y-92908380D01*
X69167333Y-92908380D01*
X69072095Y-92860761D01*
X69024476Y-92813142D01*
X67945095Y-105370380D02*
X67945095Y-106179904D01*
X67992714Y-106275142D01*
X68040333Y-106322761D01*
X68135571Y-106370380D01*
X68326047Y-106370380D01*
X68421285Y-106322761D01*
X68468904Y-106275142D01*
X68516523Y-106179904D01*
X68516523Y-105370380D01*
X69421285Y-105703714D02*
X69421285Y-106370380D01*
X69183190Y-105322761D02*
X68945095Y-106037047D01*
X69564142Y-106037047D01*
X67818095Y-118070380D02*
X67818095Y-118879904D01*
X67865714Y-118975142D01*
X67913333Y-119022761D01*
X68008571Y-119070380D01*
X68199047Y-119070380D01*
X68294285Y-119022761D01*
X68341904Y-118975142D01*
X68389523Y-118879904D01*
X68389523Y-118070380D01*
X69341904Y-118070380D02*
X68865714Y-118070380D01*
X68818095Y-118546571D01*
X68865714Y-118498952D01*
X68960952Y-118451333D01*
X69199047Y-118451333D01*
X69294285Y-118498952D01*
X69341904Y-118546571D01*
X69389523Y-118641809D01*
X69389523Y-118879904D01*
X69341904Y-118975142D01*
X69294285Y-119022761D01*
X69199047Y-119070380D01*
X68960952Y-119070380D01*
X68865714Y-119022761D01*
X68818095Y-118975142D01*
X142997619Y-110585238D02*
X142950000Y-110680476D01*
X142854761Y-110775714D01*
X142711904Y-110918571D01*
X142664285Y-111013809D01*
X142664285Y-111109047D01*
X142902380Y-111061428D02*
X142854761Y-111156666D01*
X142759523Y-111251904D01*
X142569047Y-111299523D01*
X142235714Y-111299523D01*
X142045238Y-111251904D01*
X141950000Y-111156666D01*
X141902380Y-111061428D01*
X141902380Y-110870952D01*
X141950000Y-110775714D01*
X142045238Y-110680476D01*
X142235714Y-110632857D01*
X142569047Y-110632857D01*
X142759523Y-110680476D01*
X142854761Y-110775714D01*
X142902380Y-110870952D01*
X142902380Y-111061428D01*
X142235714Y-109775714D02*
X142902380Y-109775714D01*
X141854761Y-110013809D02*
X142569047Y-110251904D01*
X142569047Y-109632857D01*
X142997619Y-95345238D02*
X142950000Y-95440476D01*
X142854761Y-95535714D01*
X142711904Y-95678571D01*
X142664285Y-95773809D01*
X142664285Y-95869047D01*
X142902380Y-95821428D02*
X142854761Y-95916666D01*
X142759523Y-96011904D01*
X142569047Y-96059523D01*
X142235714Y-96059523D01*
X142045238Y-96011904D01*
X141950000Y-95916666D01*
X141902380Y-95821428D01*
X141902380Y-95630952D01*
X141950000Y-95535714D01*
X142045238Y-95440476D01*
X142235714Y-95392857D01*
X142569047Y-95392857D01*
X142759523Y-95440476D01*
X142854761Y-95535714D01*
X142902380Y-95630952D01*
X142902380Y-95821428D01*
X141902380Y-94535714D02*
X141902380Y-94726190D01*
X141950000Y-94821428D01*
X141997619Y-94869047D01*
X142140476Y-94964285D01*
X142330952Y-95011904D01*
X142711904Y-95011904D01*
X142807142Y-94964285D01*
X142854761Y-94916666D01*
X142902380Y-94821428D01*
X142902380Y-94630952D01*
X142854761Y-94535714D01*
X142807142Y-94488095D01*
X142711904Y-94440476D01*
X142473809Y-94440476D01*
X142378571Y-94488095D01*
X142330952Y-94535714D01*
X142283333Y-94630952D01*
X142283333Y-94821428D01*
X142330952Y-94916666D01*
X142378571Y-94964285D01*
X142473809Y-95011904D01*
X142997619Y-80105238D02*
X142950000Y-80200476D01*
X142854761Y-80295714D01*
X142711904Y-80438571D01*
X142664285Y-80533809D01*
X142664285Y-80629047D01*
X142902380Y-80581428D02*
X142854761Y-80676666D01*
X142759523Y-80771904D01*
X142569047Y-80819523D01*
X142235714Y-80819523D01*
X142045238Y-80771904D01*
X141950000Y-80676666D01*
X141902380Y-80581428D01*
X141902380Y-80390952D01*
X141950000Y-80295714D01*
X142045238Y-80200476D01*
X142235714Y-80152857D01*
X142569047Y-80152857D01*
X142759523Y-80200476D01*
X142854761Y-80295714D01*
X142902380Y-80390952D01*
X142902380Y-80581428D01*
X142330952Y-79581428D02*
X142283333Y-79676666D01*
X142235714Y-79724285D01*
X142140476Y-79771904D01*
X142092857Y-79771904D01*
X141997619Y-79724285D01*
X141950000Y-79676666D01*
X141902380Y-79581428D01*
X141902380Y-79390952D01*
X141950000Y-79295714D01*
X141997619Y-79248095D01*
X142092857Y-79200476D01*
X142140476Y-79200476D01*
X142235714Y-79248095D01*
X142283333Y-79295714D01*
X142330952Y-79390952D01*
X142330952Y-79581428D01*
X142378571Y-79676666D01*
X142426190Y-79724285D01*
X142521428Y-79771904D01*
X142711904Y-79771904D01*
X142807142Y-79724285D01*
X142854761Y-79676666D01*
X142902380Y-79581428D01*
X142902380Y-79390952D01*
X142854761Y-79295714D01*
X142807142Y-79248095D01*
X142711904Y-79200476D01*
X142521428Y-79200476D01*
X142426190Y-79248095D01*
X142378571Y-79295714D01*
X142330952Y-79390952D01*
M02*
